<?xml version="1.0" encoding="utf-8"?>
<!-- Generator: Adobe Illustrator 26.1.0, SVG Export Plug-In . SVG Version: 6.00 Build 0)  -->
<svg version="1.1" id="Layer_1" xmlns="http://www.w3.org/2000/svg" xmlns:xlink="http://www.w3.org/1999/xlink" x="0px" y="0px"
	 viewBox="0 0 1362.05 998.17" style="enable-background:new 0 0 1362.05 998.17;" xml:space="preserve">
<style type="text/css">
	.st0{fill:#FFFFFF;}
	.st1{fill:#FEFBF2;}
	.st2{fill:#F6E8CD;}
	.st3{fill:#FAF0DC;}
	.st4{fill:#F6D0BB;}
	.st5{fill:#F6DACC;}
	.st6{fill:#EBE9E4;}
	.st7{fill:#F2F0EB;}
	.st8{fill:#B6E4B8;}
	.st9{fill:url(#SVGID_1_);}
	.st10{fill:url(#SVGID_00000096032736942571205360000013848449737354679451_);}
	.st11{fill:#CE815A;}
	.st12{fill:#F9B993;}
	.st13{fill:#A2BD5E;}
	.st14{fill:url(#SVGID_00000160156102192186631890000002780404632185755780_);}
	.st15{fill:url(#SVGID_00000099633782507684707860000001575309051641611949_);}
	.st16{fill:#BBDFAB;}
	.st17{fill:url(#SVGID_00000006700784740822405560000003764759920496638606_);}
	.st18{fill:url(#SVGID_00000112600502546482074740000000940344729826552971_);}
	.st19{fill:#B5CC7A;}
	.st20{fill:#BFD680;}
	.st21{fill:#ADC76D;}
	.st22{fill:#CCC8B0;}
	.st23{fill:#DDDCD0;}
	.st24{fill:#FFE242;}
	.st25{fill:#F7F5F0;}
	.st26{fill:#BAC6E6;}
	.st27{fill:#B1C1E6;}
	.st28{fill:#F6BE9D;}
	.st29{fill:#CAD2E6;}
	.st30{fill:#91A6DB;}
	.st31{fill:#F0C2A8;}
	.st32{fill:#C4744A;}
	.st33{fill:#E0AD90;}
	.st34{fill:#DCE6C3;}
	.st35{fill:#D3E0AD;}
	.st36{fill:#B8CF8F;}
	.st37{fill:#F6D9CA;}
	.st38{fill:#E8F0D6;}
	.st39{fill:#EB996A;}
	.st40{fill:#F0AC84;}
	.st41{fill:#EBEBEB;}
	.st42{fill:#F9C5A7;}
	.st43{fill:#FFFFFF;stroke:#000000;stroke-miterlimit:10;}
	.st44{fill:#F9AD7F;}
	.st45{fill:#F6E4C2;}
	.st46{fill:#C2EDC4;}
	.st47{fill:#FAECD2;}
	.st48{fill:#FFCE70;}
	.st49{fill:#FFDA8F;}
	.st50{fill:#FFC861;}
	.st51{fill:#F5F5F5;}
	.st52{fill:#D9916D;}
	.st53{fill:#BA6438;}
</style>
<rect class="st0" width="1361.12" height="997.64"/>
<g>
	<g>
		<path id="XMLID_00000174567635578523672350000007667524625562774685_" class="st1" d="M498.96,0
			c-30.27,10.6-233.9,85.69-308.64,296.44c-53.8,151.71-39.16,370.09,72.92,434.75c132.54,76.47,300.31-120.41,464.91-31.06
			c82.08,44.56,70.58,109.91,151.77,174.53c77.28,61.51,215.24,103.79,481.21,28.51c0-276.08,0-552.15,0-828.23
			c-21.17-7.12-53.09-16.51-92.65-22.86c-34.8-5.58-202.74-32.52-364.11,51.75C795.75,160.55,703.58,257.19,640.2,252.41
			c-37.2-2.8-59.84-22.3-59.84-22.3s-19.27-15.57-27.3-42.36C528.15,104.57,639.34,11.24,653.04,0C601.68,0,550.32,0,498.96,0z"/>
		<g>
			<g>
				<path class="st2" d="M335.59,125.46h-35.94c-43.43,43.12-83.86,99.18-109.33,170.98c-36.23,102.18-41.42,234.59-6.7,329.92
					h151.97V125.46z"/>
				<path class="st3" d="M335.59,127.55v-2.09h-35.94c-43.43,43.12-83.86,99.18-109.33,170.98c-3.16,8.9-6.07,18.05-8.75,27.37
					L335.59,127.55z"/>
				<g>
					<rect x="263.28" y="151.94" class="st0" width="11.67" height="34.76"/>
					<rect x="297.92" y="151.94" class="st0" width="11.67" height="34.76"/>
					<rect x="228.27" y="208.65" class="st0" width="11.67" height="34.76"/>
					<rect x="263.28" y="208.65" class="st0" width="11.67" height="34.76"/>
					<rect x="297.92" y="208.65" class="st0" width="11.67" height="34.76"/>
					<rect x="193.63" y="265.37" class="st0" width="11.67" height="34.76"/>
					<rect x="228.27" y="265.37" class="st0" width="11.67" height="34.76"/>
					<rect x="263.28" y="265.37" class="st0" width="11.67" height="34.76"/>
					<rect x="297.92" y="265.37" class="st0" width="11.67" height="34.76"/>
					<rect x="193.63" y="322.08" class="st0" width="11.67" height="34.76"/>
					<rect x="228.27" y="322.08" class="st0" width="11.67" height="34.76"/>
					<rect x="263.28" y="322.08" class="st0" width="11.67" height="34.76"/>
					<rect x="297.92" y="322.08" class="st0" width="11.67" height="34.76"/>
					<rect x="157.72" y="378.79" class="st0" width="11.67" height="34.76"/>
					<rect x="193.63" y="378.79" class="st0" width="11.67" height="34.76"/>
					<rect x="228.27" y="378.79" class="st0" width="11.67" height="34.76"/>
					<rect x="263.28" y="378.79" class="st0" width="11.67" height="34.76"/>
					<rect x="297.92" y="378.79" class="st0" width="11.67" height="34.76"/>
					<rect x="157.72" y="435.51" class="st0" width="11.67" height="34.76"/>
					<rect x="193.63" y="435.51" class="st0" width="11.67" height="34.76"/>
					<rect x="228.27" y="435.51" class="st0" width="11.67" height="34.76"/>
					<rect x="263.28" y="435.51" class="st0" width="11.67" height="34.76"/>
					<rect x="297.92" y="435.51" class="st0" width="11.67" height="34.76"/>
					<rect x="157.72" y="492.22" class="st0" width="11.67" height="34.76"/>
					<rect x="193.63" y="492.22" class="st0" width="11.67" height="34.76"/>
					<rect x="228.27" y="492.22" class="st0" width="11.67" height="34.76"/>
					<rect x="263.28" y="492.22" class="st0" width="11.67" height="34.76"/>
					<rect x="297.92" y="492.22" class="st0" width="11.67" height="34.76"/>
					<rect x="157.72" y="548.93" class="st0" width="11.67" height="34.76"/>
					<rect x="193.63" y="548.93" class="st0" width="11.67" height="34.76"/>
					<rect x="228.27" y="548.93" class="st0" width="11.67" height="34.76"/>
					<rect x="263.28" y="548.93" class="st0" width="11.67" height="34.76"/>
					<rect x="297.92" y="548.93" class="st0" width="11.67" height="34.76"/>
				</g>
			</g>
			<g>
				
					<rect id="XMLID_00000148622544113661843050000002127101365451141822_" x="1042.07" y="399.01" class="st2" width="200.97" height="500.9"/>
				<polygon class="st3" points="1195.46,399.01 1042.07,399.01 1042.07,609.72 				"/>
				<rect x="1065.18" y="425.5" class="st0" width="11.67" height="34.76"/>
				<rect x="1101.09" y="425.5" class="st0" width="11.67" height="34.76"/>
				<rect x="1135.73" y="425.5" class="st0" width="11.67" height="34.76"/>
				<rect x="1170.74" y="425.5" class="st0" width="11.67" height="34.76"/>
				<rect x="1205.38" y="425.5" class="st0" width="11.67" height="34.76"/>
				<rect x="1065.18" y="482.21" class="st0" width="11.67" height="34.76"/>
				<rect x="1101.09" y="482.21" class="st0" width="11.67" height="34.76"/>
				<rect x="1135.73" y="482.21" class="st0" width="11.67" height="34.76"/>
				<rect x="1170.74" y="482.21" class="st0" width="11.67" height="34.76"/>
				<rect x="1205.38" y="482.21" class="st0" width="11.67" height="34.76"/>
				<rect x="1065.18" y="538.93" class="st0" width="11.67" height="34.76"/>
				<rect x="1101.09" y="538.93" class="st0" width="11.67" height="34.76"/>
				<rect x="1135.73" y="538.93" class="st0" width="11.67" height="34.76"/>
				<rect x="1170.74" y="538.93" class="st0" width="11.67" height="34.76"/>
				<rect x="1205.38" y="538.93" class="st0" width="11.67" height="34.76"/>
				<rect x="1065.18" y="595.64" class="st0" width="11.67" height="34.76"/>
				<rect x="1101.09" y="595.64" class="st0" width="11.67" height="34.76"/>
				<rect x="1135.73" y="595.64" class="st0" width="11.67" height="34.76"/>
				<rect x="1170.74" y="595.64" class="st0" width="11.67" height="34.76"/>
				<rect x="1205.38" y="595.64" class="st0" width="11.67" height="34.76"/>
				<rect x="1065.18" y="652.35" class="st0" width="11.67" height="34.76"/>
				<rect x="1101.09" y="652.35" class="st0" width="11.67" height="34.76"/>
				<rect x="1135.73" y="652.35" class="st0" width="11.67" height="34.76"/>
				<rect x="1170.74" y="652.35" class="st0" width="11.67" height="34.76"/>
				<rect x="1205.38" y="652.35" class="st0" width="11.67" height="34.76"/>
				<rect x="1065.18" y="709.06" class="st0" width="11.67" height="34.76"/>
				<rect x="1101.09" y="709.06" class="st0" width="11.67" height="34.76"/>
				<rect x="1135.73" y="709.06" class="st0" width="11.67" height="34.76"/>
				<rect x="1170.74" y="709.06" class="st0" width="11.67" height="34.76"/>
				<rect x="1205.38" y="709.06" class="st0" width="11.67" height="34.76"/>
				<rect x="1065.18" y="765.78" class="st0" width="11.67" height="34.76"/>
				<rect x="1101.09" y="765.78" class="st0" width="11.67" height="34.76"/>
				<rect x="1135.73" y="765.78" class="st0" width="11.67" height="34.76"/>
				<rect x="1170.74" y="765.78" class="st0" width="11.67" height="34.76"/>
				<rect x="1205.38" y="765.78" class="st0" width="11.67" height="34.76"/>
				<rect x="1065.18" y="822.49" class="st0" width="11.67" height="34.76"/>
				<rect x="1101.09" y="822.49" class="st0" width="11.67" height="34.76"/>
				<rect x="1135.73" y="822.49" class="st0" width="11.67" height="34.76"/>
				<rect x="1170.74" y="822.49" class="st0" width="11.67" height="34.76"/>
				<rect x="1205.38" y="822.49" class="st0" width="11.67" height="34.76"/>
			</g>
			<g>
				<path class="st4" d="M1361.12,317.46H1179.8v500.9h181.32C1361.12,651.4,1361.12,484.43,1361.12,317.46z"/>
				<polygon class="st5" points="1354.26,317.46 1179.8,317.46 1179.8,621.4 				"/>
				<rect x="1202.91" y="343.95" class="st0" width="11.67" height="34.76"/>
				<rect x="1238.82" y="343.95" class="st0" width="11.67" height="34.76"/>
				<rect x="1273.45" y="343.95" class="st0" width="11.67" height="34.76"/>
				<rect x="1308.47" y="343.95" class="st0" width="11.67" height="34.76"/>
				<rect x="1343.11" y="343.95" class="st0" width="11.67" height="34.76"/>
				<rect x="1202.91" y="400.66" class="st0" width="11.67" height="34.76"/>
				<rect x="1238.82" y="400.66" class="st0" width="11.67" height="34.76"/>
				<rect x="1273.45" y="400.66" class="st0" width="11.67" height="34.76"/>
				<rect x="1308.47" y="400.66" class="st0" width="11.67" height="34.76"/>
				<rect x="1343.11" y="400.66" class="st0" width="11.67" height="34.76"/>
				<rect x="1202.91" y="457.37" class="st0" width="11.67" height="34.76"/>
				<rect x="1238.82" y="457.37" class="st0" width="11.67" height="34.76"/>
				<rect x="1273.45" y="457.37" class="st0" width="11.67" height="34.76"/>
				<rect x="1308.47" y="457.37" class="st0" width="11.67" height="34.76"/>
				<rect x="1343.11" y="457.37" class="st0" width="11.67" height="34.76"/>
				<rect x="1202.91" y="514.09" class="st0" width="11.67" height="34.76"/>
				<rect x="1238.82" y="514.09" class="st0" width="11.67" height="34.76"/>
				<rect x="1273.45" y="514.09" class="st0" width="11.67" height="34.76"/>
				<rect x="1308.47" y="514.09" class="st0" width="11.67" height="34.76"/>
				<rect x="1343.11" y="514.09" class="st0" width="11.67" height="34.76"/>
				<rect x="1202.91" y="570.8" class="st0" width="11.67" height="34.76"/>
				<rect x="1238.82" y="570.8" class="st0" width="11.67" height="34.76"/>
				<rect x="1273.45" y="570.8" class="st0" width="11.67" height="34.76"/>
				<rect x="1308.47" y="570.8" class="st0" width="11.67" height="34.76"/>
				<rect x="1343.11" y="570.8" class="st0" width="11.67" height="34.76"/>
				<rect x="1202.91" y="627.51" class="st0" width="11.67" height="34.76"/>
				<rect x="1238.82" y="627.51" class="st0" width="11.67" height="34.76"/>
				<rect x="1273.45" y="627.51" class="st0" width="11.67" height="34.76"/>
				<rect x="1308.47" y="627.51" class="st0" width="11.67" height="34.76"/>
				<rect x="1343.11" y="627.51" class="st0" width="11.67" height="34.76"/>
				<rect x="1202.91" y="684.23" class="st0" width="11.67" height="34.76"/>
				<rect x="1238.82" y="684.23" class="st0" width="11.67" height="34.76"/>
				<rect x="1273.45" y="684.23" class="st0" width="11.67" height="34.76"/>
				<rect x="1308.47" y="684.23" class="st0" width="11.67" height="34.76"/>
				<rect x="1343.11" y="684.23" class="st0" width="11.67" height="34.76"/>
				<rect x="1202.91" y="740.94" class="st0" width="11.67" height="34.76"/>
				<rect x="1238.82" y="740.94" class="st0" width="11.67" height="34.76"/>
				<rect x="1273.45" y="740.94" class="st0" width="11.67" height="34.76"/>
				<rect x="1308.47" y="740.94" class="st0" width="11.67" height="34.76"/>
				<rect x="1343.11" y="740.94" class="st0" width="11.67" height="34.76"/>
			</g>
			<g>
				
					<rect id="XMLID_00000119818103987671713550000005887015004866226822_" x="270.46" y="221.05" class="st6" width="222.46" height="542.33"/>
				<polygon class="st7" points="478.57,221.05 270.46,221.05 270.46,492.61 				"/>
				<rect x="302.48" y="249.73" class="st0" width="16.17" height="37.64"/>
				<rect x="352.25" y="249.73" class="st0" width="16.17" height="37.64"/>
				<rect x="400.25" y="249.73" class="st0" width="16.17" height="37.64"/>
				<rect x="448.77" y="249.73" class="st0" width="16.17" height="37.64"/>
				<rect x="302.48" y="311.13" class="st0" width="16.17" height="37.64"/>
				<rect x="352.25" y="311.13" class="st0" width="16.17" height="37.64"/>
				<rect x="400.25" y="311.13" class="st0" width="16.17" height="37.64"/>
				<rect x="448.77" y="311.13" class="st0" width="16.17" height="37.64"/>
				<rect x="302.48" y="372.54" class="st0" width="16.17" height="37.64"/>
				<rect x="352.25" y="372.54" class="st0" width="16.17" height="37.64"/>
				<rect x="400.25" y="372.54" class="st0" width="16.17" height="37.64"/>
				<rect x="448.77" y="372.54" class="st0" width="16.17" height="37.64"/>
				<rect x="302.48" y="433.94" class="st0" width="16.17" height="37.64"/>
				<rect x="352.25" y="433.94" class="st0" width="16.17" height="37.64"/>
				<rect x="400.25" y="433.94" class="st0" width="16.17" height="37.64"/>
				<rect x="448.77" y="433.94" class="st0" width="16.17" height="37.64"/>
				<rect x="302.48" y="495.35" class="st0" width="16.17" height="37.64"/>
				<rect x="352.25" y="495.35" class="st0" width="16.17" height="37.64"/>
				<rect x="400.25" y="495.35" class="st0" width="16.17" height="37.64"/>
				<rect x="448.77" y="495.35" class="st0" width="16.17" height="37.64"/>
				<rect x="302.48" y="556.75" class="st0" width="16.17" height="37.64"/>
				<rect x="352.25" y="556.75" class="st0" width="16.17" height="37.64"/>
				<rect x="400.25" y="556.75" class="st0" width="16.17" height="37.64"/>
				<rect x="448.77" y="556.75" class="st0" width="16.17" height="37.64"/>
				<rect x="302.48" y="618.15" class="st0" width="16.17" height="37.64"/>
				<rect x="352.25" y="618.15" class="st0" width="16.17" height="37.64"/>
				<rect x="400.25" y="618.15" class="st0" width="16.17" height="37.64"/>
				<rect x="448.77" y="618.15" class="st0" width="16.17" height="37.64"/>
				<rect x="302.48" y="679.56" class="st0" width="16.17" height="37.64"/>
				<rect x="352.25" y="679.56" class="st0" width="16.17" height="37.64"/>
				<rect x="400.25" y="679.56" class="st0" width="16.17" height="37.64"/>
				<rect x="448.77" y="679.56" class="st0" width="16.17" height="37.64"/>
			</g>
		</g>
		<g>
			<path id="XMLID_00000102517232058773308500000002865890817253633949_" class="st8" d="M935.97,491.78
				c-5.85,3.88-16.76,9.78-30.73,9.63c-26.49-0.28-55.9-22.21-56.41-50.9c-0.44-24.92,21.18-41.17,23.85-43.11
				c-2.4-2.51-16.34-17.51-14.68-39.44c1.4-18.39,13.35-35.99,31.18-42.65c12.03-4.49,22.96-2.59,27.97-1.38
				c-4.62-28.54,5.13-55.88,25.68-69.71c13.96-9.4,42.16-18.78,58.7-2.75c10.54,10.21,13.28,27.77,7.8,44.94
				c22.93-14.63,51.56-9.99,65.58,7.8c11.6,14.71,11.29,35.97,2.75,51.36c-7.69,13.86-20.26,19.71-24.76,21.55
				c21.54,27.61,22.28,63.06,4.59,84.38c-14.93,17.98-37.95,19.87-43.57,20.18c-0.76,17.25-10.64,32.24-24.76,37.6
				C970.09,526.53,945.09,515.51,935.97,491.78z"/>
			<linearGradient id="SVGID_1_" gradientUnits="userSpaceOnUse" x1="848.8264" y1="352.11" x2="1010.6069" y2="352.11">
				<stop  offset="0" style="stop-color:#B6E4BD"/>
				<stop  offset="1" style="stop-color:#F1F29D"/>
			</linearGradient>
			<path class="st9" d="M1001.55,251.47c-16.54-16.03-44.74-6.65-58.7,2.75c-20.55,13.83-30.3,41.17-25.68,69.71
				c-5.01-1.22-15.95-3.11-27.97,1.38c-17.84,6.66-29.79,24.26-31.18,42.65c-1.67,21.93,12.27,36.93,14.68,39.44
				c-2.67,1.94-24.28,18.19-23.85,43.11c0.07,3.76,0.64,7.41,1.63,10.91c0.96-4.59,2.41-9.01,4.36-13.18
				c9.89-21.1,30.4-31.21,40.98-35.39c-17.9-17.63-20.38-43.59-8.38-59.8c12.02-16.23,33.7-16.05,36.08-16
				c3.12-42.74,31.67-73.32,61.57-75.01c9.67-0.55,18.36,2,25.54,5.47C1008.95,261.27,1005.94,255.73,1001.55,251.47z"/>
			
				<linearGradient id="SVGID_00000018941266757898670080000002741376849454242995_" gradientUnits="userSpaceOnUse" x1="1012.415" y1="489.4029" x2="1055.6385" y2="408.7312">
				<stop  offset="0" style="stop-color:#B5CC7A"/>
				<stop  offset="1" style="stop-color:#B6E4BD"/>
			</linearGradient>
			<path style="fill:url(#SVGID_00000018941266757898670080000002741376849454242995_);" d="M1057.5,461.51
				c13.72-16.53,16.35-41.56,6.8-64.84c-1.36,9.08-4.84,20.52-13.19,31.39c-18.8,24.48-47.18,26.39-51.36,26.6
				c2.3,14.14,0.29,25.06-1.83,32.1c-4.47,14.81-13.58,26.09-23.99,34.61c5.23,0.41,10.43-0.25,15.25-2.08
				c14.13-5.36,24.01-20.36,24.76-37.6C1019.55,481.38,1042.57,479.5,1057.5,461.51z"/>
			<path id="XMLID_00000053525300354275395740000005649683489502852481_" class="st11" d="M915.79,681.18
				c17.25-39.94,21.81-73.95,22.93-96.31c2.14-42.68-6.46-79.02-14.68-113.73c-4.24-17.91-8.61-32.67-11.92-43.11
				c3.45,5.89,8.47,15.01,13.62,26.69c5.79,13.15,7.02,18.85,9.22,18.78c5.12-0.16,6.53-31.23,11.56-60.6
				c3.59-20.97,10.66-50.63,26.14-85.76c-5.18,15.71-11.71,38.31-16.51,66.04c-10.8,62.39-7.85,121.66-3.67,121.99
				c1.44,0.11,2.25-6.84,8.25-26.6c5.04-16.6,10.06-30.09,13.76-39.44c-9.39,35.08-12.1,63.74-12.84,83.46
				c-0.75,20.01,0.53,31.03,0.92,64.2c0.35,30.21-0.31,54.75-0.92,70.62C946.36,672.01,931.07,676.59,915.79,681.18z"/>
			<g>
				<path class="st12" d="M944.69,492.93c1.39,5.2,3.25,10.29,5.05,15.21c0.28,0.76,0.55,1.51,0.82,2.26
					c-0.25-1.35-0.49-2.98-0.7-4.85c-1.52-4.2-3.03-8.5-4.2-12.87c-3.24-12.13-1.69-25.97,1.39-53.55
					c4.06-36.33,13.11-73.35,21.91-103.28c-1.31,3.19-2.57,6.33-3.75,9.41c-7.88,28.08-15.52,61.19-19.16,93.76
					C942.95,466.72,941.4,480.62,944.69,492.93z"/>
				<path class="st12" d="M950.18,555.5c-0.24,2.51,0.7,5.84,2.97,7.34c2.19,1.45,4.77,0.76,7.26,0.1c0.46-0.12,0.91-0.24,1.35-0.34
					c-0.01-0.34-0.02-0.68-0.03-1.02c-0.53,0.12-1.05,0.26-1.58,0.4c-2.39,0.64-4.64,1.23-6.45,0.04c-1.92-1.27-2.74-4.25-2.53-6.41
					c0.36-3.76,4.34-8,10.24-10.99c0-0.37,0-0.74,0-1.12C956.39,545.97,950.66,550.46,950.18,555.5z"/>
				<path class="st12" d="M961.92,659.81c-7.66,4.75-12.8,6.23-15.31,4.34c-3.09-2.32-1.83-9.48-0.61-16.4
					c1.27-7.2,2.47-14-1.03-16.05c-2.95-1.73-7.4,1.03-11.71,3.69c-0.79,0.49-1.58,0.98-2.36,1.43c-0.11,0.45-0.23,0.9-0.34,1.35
					c1.04-0.58,2.13-1.25,3.23-1.93c3.87-2.39,8.26-5.1,10.68-3.67c2.89,1.7,1.7,8.47,0.55,15.01c-1.27,7.22-2.59,14.69,1,17.37
					c0.87,0.65,1.97,0.98,3.3,0.98c2.99,0,7.16-1.63,12.57-4.92C961.89,660.62,961.9,660.21,961.92,659.81z"/>
				<path class="st12" d="M932.78,510.69c0.32,1.7,0.64,3.4,0.94,5.12c0.01-0.82,0.03-1.65,0.04-2.52
					c0.38-24.24-4.59-48.62-14.79-72.76c-2.6-5.06-4.96-9.26-6.85-12.49c0.01,0.04,0.03,0.08,0.04,0.12
					C925.84,455.46,932.77,483.15,932.78,510.69z"/>
				<path class="st12" d="M953.26,645.45c2.65,0.95,6.01-0.9,9.13-3.62c0.01-0.45,0.02-0.92,0.02-1.37
					c-3.62,3.32-6.76,4.78-8.82,4.04c-2.14-0.77-2.02-4.64-1.78-12.37c0.21-6.89,0.53-17.3-0.64-31.69l-0.09-1.11
					c-0.47-5.66-0.88-10.54,1.7-12.19c2.29-1.47,6.15,0.1,9.68,2.23c-0.01-0.4-0.01-0.81-0.02-1.2c-3.76-2.19-7.64-3.51-10.2-1.88
					c-3.08,1.97-2.65,7.14-2.15,13.12l0.09,1.1c1.17,14.33,0.85,24.71,0.63,31.58C950.55,640.57,950.43,644.43,953.26,645.45z"/>
				<path class="st12" d="M956.86,600.51c-3.06,1.61-2.47,7.44-1.18,20.21c0.71,6.98,1.49,8.58,2.98,9.54
					c1.16,0.75,2.51,0.88,3.9,0.67c0-0.34,0.01-0.67,0.01-1.01c-1.24,0.21-2.41,0.12-3.37-0.5c-1.18-0.76-1.87-2.27-2.53-8.8
					c-1.17-11.56-1.81-17.93,0.65-19.23c1.27-0.67,3.19-0.08,5.29,1.16c0-0.38-0.01-0.77-0.01-1.16
					C960.51,600.25,958.43,599.68,956.86,600.51z"/>
				<path class="st12" d="M949.96,572.95c3.61,2.13,7.97,2.57,12.16,1.5c-0.01-0.34-0.02-0.69-0.03-1.03
					c-4.01,1.08-8.18,0.69-11.62-1.34c-7.51-4.43-7.77-15-5.56-21.1c1.21-3.33,2.97-4.78,4.83-6.31c1.38-1.13,2.8-2.31,4.1-4.27
					c4.58-6.92,2.61-15.94-0.71-25.73c-0.22,0.35-0.43,0.51-0.65,0.49c-0.09-0.01-0.18-0.05-0.27-0.11
					c3.33,9.75,5.16,18.22,0.8,24.8c-1.21,1.84-2.58,2.96-3.9,4.05c-1.89,1.55-3.84,3.16-5.14,6.74
					C941.8,556.62,941.51,567.96,949.96,572.95z"/>
				<path class="st12" d="M946.98,536.4c4.43-7.34,0.69-16.56-3.65-27.23c-1.7-4.18-3.46-8.51-4.92-13.13
					c-2.29-7.22-3.68-14.83-4.21-22.78c-0.36-0.24-0.71-0.67-1.08-1.29c0.46,8.52,1.9,16.67,4.34,24.38c1.47,4.66,3.24,9,4.95,13.21
					c4.24,10.42,7.9,19.42,3.73,26.33c-1.74,2.87-4.62,5.08-8.59,6.62c0.04,0.34,0.07,0.69,0.1,1.03
					C941.95,541.91,945.08,539.53,946.98,536.4z"/>
				<path class="st12" d="M943.33,609.89c5.91-11.81,3.31-23.46,1.42-31.98c-1.25-5.61-3.24-11.09-5.88-16.32
					c0.03,0.81,0.05,1.63,0.07,2.44c2.12,4.55,3.75,9.27,4.83,14.09c1.97,8.83,4.42,19.82-1.33,31.31
					c-2.12,4.22-4.89,7.59-7.8,10.27c-0.1,0.53-0.2,1.07-0.3,1.61C937.67,618.44,940.91,614.7,943.33,609.89z"/>
			</g>
		</g>
		<path class="st13" d="M329.96,601.18c-10.28-4.96-20.64-3.24-25.45-2.06c8.5-9.61,7.65-24.08-1.06-32.06
			c-7.75-7.1-20.17-7.67-29.18-0.85c1.74-5.17-0.26-10.48-3.89-12.46c-4.55-2.48-11.96,0.1-14.29,6.96
			c-3.1-18.02-18.68-31.11-36.18-31.07c-18.86,0.04-35.22,15.34-36.46,35.08c-5.11-3.18-10.99-4.46-16.71-3.93
			c11.42,68.37,38.04,127.65,82.09,160.84c0.88-2.61,1.49-5.37,1.75-8.23c6.42,2.71,27.74,10.76,51.6,2.54
			c26.63-9.18,45.76-34.97,49.11-65.91C354.52,628.39,345.51,608.68,329.96,601.18z"/>
		<g>
			
				<linearGradient id="SVGID_00000103237155944517586420000017937162223244264119_" gradientUnits="userSpaceOnUse" x1="1049.3364" y1="747.5585" x2="1056.9669" y2="686.1569">
				<stop  offset="0" style="stop-color:#CFE4AC"/>
				<stop  offset="1" style="stop-color:#D8E4C2"/>
			</linearGradient>
			<path style="fill:url(#SVGID_00000103237155944517586420000017937162223244264119_);" d="M1187.77,637.72
				c-176.89,6.13-332.95,30.64-463.41,60.41c1.26,0.65,2.53,1.32,3.79,2c82.08,44.56,70.58,109.91,151.77,174.53
				c77.28,61.51,215.24,103.79,481.21,28.51c0-88.45,0-176.9,0-265.35C1306.22,635.85,1248.34,635.62,1187.77,637.72z"/>
			
				<linearGradient id="SVGID_00000163063880779949064300000011981108212636167325_" gradientUnits="userSpaceOnUse" x1="385.555" y1="681.657" x2="388.5388" y2="657.647">
				<stop  offset="0" style="stop-color:#CFE4AC"/>
				<stop  offset="1" style="stop-color:#D8E4C2"/>
			</linearGradient>
			<path style="fill:url(#SVGID_00000163063880779949064300000011981108212636167325_);" d="M176.36,603.91
				c16.09,56.45,44.52,102.85,86.87,127.28c99.45,57.38,218.73-39.14,341.63-53.17c-91.44-28.99-200.62-54.65-325.12-67.12
				C243.97,607.32,209.47,605.08,176.36,603.91z"/>
		</g>
		<g>
			<path id="XMLID_00000062151258760593804510000000307875419572535945_" class="st16" d="M1167.74,552.76
				c-24.78,3.9-43.65-13.31-43.56-28.76c0.06-11.37,10.39-23.21,25.38-27.91c-7.09,0.41-12.37-5.51-11.8-11.04
				c0.49-4.79,5.36-9.09,11.37-8.84c-22.86-22.88-22.7-53.44-8.88-65.98c12.45-11.3,33.54-5.74,35.95-5.08
				c-1.83-21.85,11.99-39.75,27.07-42.29c17.79-3,40.52,14.8,40.18,41.87c2.33-6.85,9.74-9.43,14.29-6.96
				c3.64,1.98,5.63,7.28,3.89,12.46c10.68-6.94,23.45-5.61,29.18,0.85c7.05,7.93,5.15,25.44-9.3,34.26
				c27.17,5.86,41.32,30.42,35.95,48.22c-3.64,12.07-16.28,21.13-31.3,23.69c11.66,13.37,12.15,31.96,3.38,42.72
				c-10.9,13.38-36.24,14.78-51.6-2.54c-1.73,18.82-17.82,33.02-35.95,32.57C1182.83,589.5,1166.96,572.77,1167.74,552.76z"/>
			
				<linearGradient id="SVGID_00000111871817882468937550000007448346059690134698_" gradientUnits="userSpaceOnUse" x1="1187.071" y1="461.7688" x2="1152.2032" y2="434.9831">
				<stop  offset="0" style="stop-color:#BBDFAB"/>
				<stop  offset="1" style="stop-color:#F2E794"/>
			</linearGradient>
			<path style="fill:url(#SVGID_00000111871817882468937550000007448346059690134698_);" d="M1203.27,362.86
				c-15.08,2.55-28.9,20.44-27.07,42.29c-2.41-0.67-23.5-6.22-35.95,5.08c-13.81,12.54-13.98,43.1,8.88,65.98
				c-6.02-0.25-10.88,4.06-11.37,8.84c-0.57,5.53,4.71,11.45,11.8,11.04c-14.98,4.7-25.31,16.55-25.38,27.91
				c-0.05,9.75,7.44,20.19,19.2,25.59c-2.4-4.39-4.4-9.87-4.82-16.34c-0.99-15.2,7.08-30.01,20.78-38.55
				c-5.24-0.21-8.76-5-7.95-9.17c0.77-3.97,5.39-7.02,10.18-5.73c-22.42-18.75-23.97-44.89-14.17-54.31
				c7.56-7.27,23.95-6.54,39,1.64c-9.28-22.06,1.32-46.31,20.18-53.66c7.56-2.94,16.05-3.01,24.04-0.51
				C1222.69,365.21,1212.34,361.33,1203.27,362.86z"/>
			
				<linearGradient id="SVGID_00000039098696083657995890000009044751258574090385_" gradientUnits="userSpaceOnUse" x1="1249.9443" y1="510.5357" x2="1318.5911" y2="510.5357">
				<stop  offset="0" style="stop-color:#9FC767"/>
				<stop  offset="1" style="stop-color:#BBDFAB"/>
			</linearGradient>
			<path style="fill:url(#SVGID_00000039098696083657995890000009044751258574090385_);" d="M1317.47,493.55
				c4.3-14.25-3.92-32.81-21.3-42.67c3.29,7.02,8.6,18.64,5.34,30.68c-3.71,13.67-16.88,22.03-27.21,26.9
				c9.18,10.44,11.34,25.37,5.5,37.91c-5.46,11.74-17.03,19.42-29.85,20.14c14.35,6.91,31.23,3.71,39.61-6.56
				c8.76-10.75,8.27-29.35-3.38-42.72C1301.18,514.68,1313.83,505.62,1317.47,493.55z"/>
			<path id="XMLID_00000169536376887342347950000009170090938329103801_" class="st11" d="M1241.69,702.87
				c-0.36-33.12-0.04-61.93,0.49-85.4c1.43-63.46,4.1-75.84,5.5-81.63c1.1-4.56,3.59-14.1,4.65-27.49
				c1.3-16.31-0.19-29.87-1.69-38.91c-0.54,18.68-2.71,33.61-4.65,43.99c-2.84,15.14-4.36,16.06-5.08,16.07
				c-2.16,0.04-4.62-8.06-8.88-37.64c-2.34-16.24-5.31-39.6-7.61-68.52c-1.72,15.39-3.09,38.74,0.42,66.83
				c3.69,29.48,11.62,54.99,8.04,56.25c-2.05,0.72-6.69-6.96-11.42-14.8c-5-8.29-8.17-15.75-10.15-21.15
				c1.27,9.01,3.74,22.73,8.88,38.91c4.47,14.07,6.7,16.57,9.3,24.53c6.56,20.08,2.19,34.26-9.73,98.12
				c-2.66,14.28-4.68,25.54-5.63,30.89C1223.32,702.91,1232.51,702.89,1241.69,702.87z"/>
			<g>
				<path class="st12" d="M1237.34,659.61c-0.26-3.34,1.28-5.31,3.06-7.59c0.41-0.52,0.84-1.08,1.26-1.66
					c0.01-0.61,0.01-1.21,0.02-1.81c-0.65,1.04-1.36,1.96-2.07,2.86c-1.83,2.34-3.55,4.55-3.27,8.28c0.3,3.82,2.59,7.61,5.2,10.16
					c0-0.47,0-0.95,0-1.43C1239.38,666.07,1237.59,662.85,1237.34,659.61z"/>
				<path class="st12" d="M1243.38,580.21c0.1-2.13,0.19-4.15,0.29-6.07c-1.82-16.34-1.98-27.36,1.91-41.85
					c1.05-3.93,1.91-6.27,2.68-8.34c0.99-2.69,1.84-5.01,2.72-9.77c2.12-11.49,1.87-23.41-0.74-35.62
					c-0.08,1.33-0.16,2.64-0.26,3.93c1.88,10.78,1.9,21.32,0.02,31.51c-0.86,4.67-1.66,6.85-2.68,9.6c-0.77,2.09-1.64,4.46-2.7,8.43
					C1240.23,548.39,1240.94,560.31,1243.38,580.21z"/>
				<path class="st12" d="M1222.92,467.21c1.1,6.58,2.49,13.62,4.26,21.04c0.47,1.98,1,4.09,1.55,6.32
					c2.92,11.76,6.57,26.4,8.99,46.82c1.53,12.94,1.95,22.61-0.45,33.77c-1.5,6.96-3.29,10.8-4.85,13.73
					c0.04,0.64,0.07,1.29,0.09,1.94c0.04-0.08,0.08-0.15,0.12-0.23c1.72-3.17,3.86-7.11,5.61-15.23c2.43-11.29,2.01-21.06,0.46-34.1
					c-2.43-20.48-6.08-35.16-9.01-46.95c-0.55-2.23-1.08-4.32-1.55-6.31c-2.5-10.48-4.24-20.19-5.47-28.92
					C1222.73,461.73,1222.8,464.44,1222.92,467.21z"/>
				<path class="st12" d="M1241.57,687.14c-2.44-3.5-5.25-7-8.5-10.41c-3.78-3.97-8-7.37-12.26-10.29c-0.07,0.35-0.13,0.71-0.2,1.07
					c4.08,2.82,8.12,6.11,11.74,9.91c3.58,3.76,6.63,7.64,9.23,11.49C1241.58,688.32,1241.57,687.73,1241.57,687.14z"/>
				<path class="st12" d="M1230.97,610.87c-0.1,0.7-0.21,1.42-0.32,2.15c1.77,4.68,4.4,8.75,6.84,12.54
					c1.65,2.55,3.21,4.97,4.39,7.37c0.01-0.7,0.02-1.4,0.03-2.09c-1.06-1.9-2.29-3.83-3.59-5.83
					C1235.61,620.81,1232.67,616.24,1230.97,610.87z"/>
				<path class="st12" d="M1230.92,629.78c-0.44-3.62-1.01-6.28-1.64-8.48c-0.14,0.78-0.28,1.58-0.42,2.39
					c0.4,1.73,0.76,3.74,1.06,6.21c1.18,9.64,2.8,22.85-3.49,27.98c-1.25,1.02-2.74,1.65-4.39,2.01c-0.07,0.35-0.13,0.7-0.2,1.06
					c1.96-0.36,3.74-1.08,5.22-2.29C1233.79,653.18,1232.13,639.65,1230.92,629.78z"/>
				<path class="st12" d="M1220.03,548.88c0.05,0.17,0.1,0.33,0.16,0.5c0.15,0.46,0.29,0.91,0.44,1.35
					c4.74,4.22,8.97,8.59,10.22,16.36c0.61,3.75,0.28,6.85-0.48,9.7c0.17,0.62,0.34,1.24,0.49,1.86c1.12-3.4,1.72-7.06,0.97-11.72
					C1230.41,558.13,1225.4,553.58,1220.03,548.88z"/>
			</g>
		</g>
		<g>
			<path id="XMLID_00000122700403193836419130000018010265994648012215_" class="st19" d="M1074.96,714.22
				c9.02-20.43,30.34-30.39,47.78-24.97c18.91,5.88,24.57,27.16,24.87,28.37c0.39-7.09,6.87-11.67,12.3-10.48
				c4.7,1.03,8.43,6.35,7.5,12.3c25.32-20.13,55.66-16.51,66.56-1.37c9.82,13.65,1.92,33.97,0.98,36.29
				c21.92,0.65,38.14,16.4,38.97,31.67c0.98,18.01-19.28,38.59-46.14,35.19c6.55,3.09,8.27,10.75,5.3,14.99
				c-2.38,3.39-7.87,4.77-12.82,2.46c5.69,11.4,2.92,23.93-4.14,28.9c-8.67,6.11-25.86,2.25-32.99-13.12
				c-8.89,26.34-34.89,37.62-51.97,30.27c-11.58-4.98-19.16-18.57-20-33.77c-14.6,10.07-33.13,8.46-42.83-1.46
				c-12.06-12.34-10.59-37.68,8.35-50.98c-30.13-0.3-50.83-26.44-47.13-49.45C1032.56,730.44,1051.49,714.39,1074.96,714.22z"/>
			<path class="st20" d="M1236.06,751.26c0.24-0.72,0.49-1.55,0.74-2.46c-4.52-13.13-9.04-26.25-13.56-39.38
				c-14.3-6.86-36.53-5.33-55.85,10.02c0.93-5.95-2.8-11.27-7.5-12.3c-5.43-1.19-11.91,3.39-12.3,10.48
				c-0.3-1.21-5.96-22.49-24.87-28.37c-17.44-5.42-38.75,4.54-47.78,24.97c-23.46,0.16-42.4,16.22-45.4,34.85
				c-1.56,9.69,1.22,19.93,7.2,28.56c3.26,1.79,6.51,3.58,9.77,5.37c-6.6-16.3-2.28-34.02,9.63-43.11
				c11.54-8.8,25.61-6.01,27.97-5.5c0.47-1.9,4.32-16.55,17.43-22.01c13.61-5.67,31.77,0.82,41.27,16.97
				c0.22-0.24,4.75-4.98,11.01-3.67c4.75,0.99,8.45,5.03,9.17,10.09c6.26-5.3,12.19-7.62,16.51-8.71
				C1198.19,722.33,1219.77,732.08,1236.06,751.26z"/>
			<path class="st13" d="M1361.12,662.64c-14.2-11-40.93-8.33-57.4,12.7c-1.62-16.86-16.55-26.21-26.76-23.32
				c-8.31,2.35-15.08,13.25-13.5,25.89c-3.9-3.82-9.54-4.34-12.91-1.93c-4.21,3.01-5.13,10.81,0.02,15.9
				c-12.02-6.96-27.21-5.52-37.67,3.55c-10.57,9.16-14.1,24.19-8.71,37.15c-24.21-3.33-46.29,8.15-54.11,26.6
				c-6.64,15.64-0.74,30.91,0.92,34.85c40.91,4.64,81.82,9.28,122.73,13.91c-2.85,5.31-1.1,11.56,2.99,14.09
				c4.73,2.93,12.36,0.76,15.08-5.8c-2.31,15.54,3.84,30,14.04,35.02c13.87,6.82,37.58-2.65,44.89-26.64
				c3.35,1.79,6.85,2.99,10.4,3.64C1361.12,773.04,1361.12,717.84,1361.12,662.64z"/>
			<path class="st21" d="M1361.12,662.64c-14.2-11-40.93-8.33-57.4,12.7c-1.62-16.86-16.55-26.21-26.76-23.32
				c-8.31,2.35-15.08,13.25-13.5,25.89c-3.9-3.82-9.54-4.34-12.91-1.93c-4.21,3.01-5.13,10.81,0.02,15.9
				c-12.02-6.96-27.21-5.52-37.67,3.55c-10.57,9.16-14.1,24.19-8.71,37.15c-24.21-3.33-46.29,8.15-54.11,26.6
				c-6.64,15.64-0.74,30.91,0.92,34.85c4.76,0.54,9.52,1.08,14.29,1.62c0.58-8.03,3.02-15.84,7.36-22.72
				c10.07-15.96,29.12-24.91,49.07-23.39c-7.14-13.83-3.72-29.98,6.88-38.06c11.89-9.06,27.04-3.57,27.97-3.21
				c-1.36-7.09,2.57-13.38,7.8-14.68c5.2-1.29,9.72,2.86,10.09,3.21c0.36-1.21,3.16-10.09,10.68-12.57
				c8.44-2.78,20.24,3.38,24.64,16.24c2.92-3,14.01-13.66,29.35-13.3c7.76,0.18,15.4,3.15,22.01,8.3
				C1361.12,684.52,1361.12,673.58,1361.12,662.64z"/>
		</g>
		<g>
			<path class="st22" d="M1361.12,903.17c0-46.63,0-93.26,0-139.88H794.33c21.84,34.38,37.37,73.01,85.58,111.38
				C957.2,936.16,1095.15,978.44,1361.12,903.17z"/>
			<path class="st23" d="M1361.12,903.17c0-39.38,0-78.76,0-118.14H807.37c16.59,28.54,34.27,59.16,72.55,89.63
				C957.2,936.16,1095.15,978.44,1361.12,903.17z"/>
		</g>
		<path class="st24" d="M552.4,185.3c-11.25-42.1,11.6-86.55,38.52-121.48c-10-6.16-21.77-9.72-34.38-9.72
			c-36.27,0-65.67,29.4-65.67,65.67C490.86,154.65,518.06,183.17,552.4,185.3z"/>
		<path class="st0" d="M533.17,339.99c53.12-0.01,106.25-0.03,159.37-0.04c-2.14-2.58-10.28-11.73-24.32-14.17
			c-11.6-2.01-20.71,1.68-24.06,3.24c-1.37-2.58-8.6-15.64-23.4-19.3c-15.91-3.94-34.06,4.59-43.57,21.55
			c-2.76-2.08-8.01-5.35-15.13-5.96C545.1,323.87,533.92,338.94,533.17,339.99z"/>
		<path class="st0" d="M407.56,128.41h122.9c-4.99-16.12-18.8-27.96-35.31-30.27c-17.39-2.43-34.71,6.12-43.57,21.55
			c-2.76-2.08-8.01-5.35-15.13-5.96C419.49,112.28,408.32,127.35,407.56,128.41z"/>
		<path class="st0" d="M1207.03,200.78h-122.9c4.99-16.12,18.8-27.96,35.31-30.27c17.39-2.43,34.71,6.12,43.57,21.55
			c2.76-2.08,8.01-5.35,15.13-5.96C1195.1,184.66,1206.27,199.73,1207.03,200.78z"/>
	</g>
	<g>
		<g>
			<polygon class="st4" points="372.12,832.81 372.12,861.3 426.27,861.3 426.27,834.64 			"/>
			<g>
				<polygon class="st8" points="364.97,886.08 461.51,886.03 430.45,867.2 430.44,853.18 364.95,853.22 				"/>
				<path class="st0" d="M417.47,868.2c-0.55,0-1-0.45-1-1c0-0.55,0.45-1,1-1l12.98,0h0c0.55,0,1,0.45,1,1c0,0.55-0.45,1-1,1
					L417.47,868.2L417.47,868.2z"/>
				<path class="st0" d="M417.47,865.26c-0.55,0-1-0.45-1-1c0-0.55,0.45-1,1-1l12.98-0.01h0c0.55,0,1,0.45,1,1c0,0.55-0.45,1-1,1
					L417.47,865.26L417.47,865.26z"/>
				<path class="st0" d="M417.47,862.31c-0.55,0-1-0.45-1-1c0-0.55,0.45-1,1-1l12.98,0h0c0.55,0,1,0.45,1,1c0,0.55-0.45,1-1,1
					L417.47,862.31L417.47,862.31z"/>
				<path class="st0" d="M417.47,859.36c-0.55,0-1-0.45-1-1c0-0.55,0.45-1,1-1l12.98,0h0c0.55,0,1,0.45,1,1c0,0.55-0.45,1-1,1
					L417.47,859.36L417.47,859.36z"/>
				<polygon class="st25" points="461.51,886.03 450.23,879.19 364.96,879.23 364.97,886.08 				"/>
			</g>
			<path id="XMLID_00000060032201269555078360000013644693289006323588_" class="st26" d="M350.88,844.28h94.91
				c2.76-48.67,9.52-97.33,12.28-146c0.73-12.92-4.66-25.43-14.56-33.76c-35.39-29.79-90.77-59.58-126.16-89.38
				c-23.39,17.18-46.79,34.35-70.18,51.53c39.1,29.51,78.2,59.02,117.29,88.53C359.94,758.23,355.41,801.26,350.88,844.28z"/>
			<path class="st27" d="M364.47,715.2c-2.62,24.89-5.24,49.78-7.86,74.66c30.85-39.84,61.71-79.67,92.56-119.51
				c-1.68-2.1-3.56-4.07-5.66-5.83c-16.06-13.52-36.24-27.04-56.79-40.56C379.3,654.38,371.89,684.79,364.47,715.2z"/>
			<path class="st22" d="M437.58,898.02h-42.33c-3.3,0-5.97-2.67-5.97-5.97l0,0c0-3.3,2.67-5.97,5.97-5.97h42.33
				c3.3,0,5.97,2.67,5.97,5.97l0,0C443.55,895.35,440.87,898.02,437.58,898.02z"/>
		</g>
		<g>
			<path class="st6" d="M897.33,948.76c-51.25,0-92.94-41.69-92.94-92.94s41.69-92.94,92.94-92.94c51.25,0,92.94,41.69,92.94,92.94
				S948.58,948.76,897.33,948.76z M897.33,792.88c-34.71,0-62.94,28.23-62.94,62.94s28.24,62.94,62.94,62.94
				s62.94-28.24,62.94-62.94S932.04,792.88,897.33,792.88z"/>
			<path class="st5" d="M539.94,864.16c-19-47.49-39.99-95.99-58.99-143.48c8.8-4.16,87.23-39.56,167.85,2.75
				c91.02,47.77,99.38,149.76,99.75,155.47l-185.36,1C552.95,879.9,543.74,873.66,539.94,864.16z"/>
			<path class="st28" d="M1052.39,874.64c0.37-14.32,1.29-112.75-76.41-180.41c-67.65-58.91-83.83-70.97-170.54-30.43
				c-18.59-47.96-37.18-95.93-55.77-143.89c-1.93-4.98-7.4-7.59-12.48-5.97l-0.19,0.06c-5.49,1.75-8.41,7.73-6.41,13.14
				c31.23,84.13,62.47,168.26,93.7,252.39c11.94,35.7-60.14,71.4-48.2,107.09L1052.39,874.64"/>
			<path class="st5" d="M412.31,519.91h325.8c24.46,65.66,48.92,131.32,73.38,196.98c67.01-0.1,2.19-0.2,69.19-0.31
				c0.09,59.5,0.18,119,0.26,178.51H715.54c6.83-63.89-24.75-125.23-79.24-154.63c-74.24-40.06-148.52,2.06-152.36,4.33
				C460.06,669.83,436.18,594.87,412.31,519.91z"/>
			<path class="st0" d="M811.49,717.89H472.08c-0.55,0-1-0.45-1-1s0.45-1,1-1h339.41c0.55,0,1,0.45,1,1S812.04,717.89,811.49,717.89
				z"/>
			<path class="st5" d="M810.38,874.67h271.13c5.64,0,10.21,4.57,10.21,10.21v0c0,5.64-4.57,10.21-10.21,10.21H810.38
				c-5.64,0-10.21-4.57-10.21-10.21v0C800.17,879.24,804.74,874.67,810.38,874.67z"/>
			<g>
				
					<rect x="310.45" y="642.53" transform="matrix(0.9364 -0.351 0.351 0.9364 -244.425 159.1047)" class="st22" width="12.4" height="222.47"/>
				<path class="st6" d="M310.55,654.55h-60.13c-4.69,0-8.48-3.8-8.48-8.48l0,0c0-4.69,3.8-8.48,8.48-8.48h60.13
					c4.69,0,8.48,3.8,8.48,8.48l0,0C319.03,650.76,315.23,654.55,310.55,654.55z"/>
				
					<rect x="239.19" y="699.42" transform="matrix(0.6061 0.7954 -0.7954 0.6061 714.5935 110.8358)" class="st22" width="12.4" height="154.92"/>
				
					<rect x="452.95" y="743.84" transform="matrix(-2.533495e-03 -1 1 -2.533495e-03 -393.0921 1314.7158)" class="st22" width="12.4" height="219.13"/>
				<path class="st6" d="M187.99,948.76c-69.97,0-126.9-56.93-126.9-126.9s56.93-126.9,126.9-126.9s126.9,56.93,126.9,126.9
					S257.96,948.76,187.99,948.76z M187.99,724.97c-53.43,0-96.9,43.47-96.9,96.9s43.47,96.9,96.9,96.9s96.9-43.47,96.9-96.9
					S241.42,724.97,187.99,724.97z"/>
				<path class="st6" d="M562.56,948.76c-51.25,0-92.94-41.69-92.94-92.94s41.69-92.94,92.94-92.94c51.25,0,92.94,41.69,92.94,92.94
					S613.8,948.76,562.56,948.76z M562.56,792.88c-34.71,0-62.94,28.23-62.94,62.94s28.24,62.94,62.94,62.94
					s62.94-28.24,62.94-62.94S597.26,792.88,562.56,792.88z"/>
				<circle class="st6" cx="187.99" cy="821.86" r="13.74"/>
				<circle class="st6" cx="562.56" cy="853.44" r="13.74"/>
			</g>
		</g>
		<g>
			<path class="st4" d="M287.57,730.53c-0.82,11.52-1.63,23.03-2.45,34.55c19.55-0.11,39.09-0.21,58.64-0.32l4.24-30.21
				C327.86,733.21,307.72,731.87,287.57,730.53z"/>
			<g>
				<polygon class="st8" points="282.53,786.59 379.07,786.54 348.01,767.71 348,753.69 282.51,753.72 				"/>
				<path class="st0" d="M335.03,768.71c-0.55,0-1-0.45-1-1c0-0.55,0.45-1,1-1l12.98,0h0c0.55,0,1,0.45,1,1c0,0.55-0.45,1-1,1
					L335.03,768.71L335.03,768.71z"/>
				<path class="st0" d="M335.03,765.76c-0.55,0-1-0.45-1-1c0-0.55,0.45-1,1-1l12.98,0h0c0.55,0,1,0.45,1,1c0,0.55-0.45,1-1,1
					L335.03,765.76L335.03,765.76z"/>
				<path class="st0" d="M335.03,762.81c-0.55,0-1-0.45-1-1c0-0.55,0.45-1,1-1l12.98,0h0c0.55,0,1,0.45,1,1c0,0.55-0.45,1-1,1
					L335.03,762.81L335.03,762.81z"/>
				<path class="st0" d="M335.03,759.87c-0.55,0-1-0.45-1-1c0-0.55,0.45-1,1-1l12.98-0.01h0c0.55,0,1,0.45,1,1c0,0.55-0.45,1-1,1
					L335.03,759.87L335.03,759.87z"/>
				<polygon class="st25" points="379.07,786.54 367.78,779.7 282.52,779.74 282.53,786.59 				"/>
			</g>
			<path class="st4" d="M421.92,485.33c3.79,11.53,7.59,23.05,11.38,34.58c-7,0-13.99,0-20.99,0c1.91,20.96,3.82,41.93,5.72,62.89
				c-3.67,2.37-7.34,4.74-11.01,7.11c-16.74-5.43-33.48-10.85-50.22-16.28c-21.58-28-17.25-65.4,4.57-83.25
				C377.17,477.46,400.99,475.69,421.92,485.33z"/>
			<g>
				<path id="XMLID_00000152964526937820858850000010719960217037069493_" class="st26" d="M249.33,562.38
					c-3.07,2.41-18.08,14.71-19.57,35.16c-0.27,3.72-1.37,18.81,8.56,29.66c6.55,7.15,15.21,9.53,32.4,11.54
					c15.42,1.8,36.74,3.17,62.67,1.44c-20.89,35.11-41.78,70.23-62.66,105.34c31.45,0.37,62.91,0.74,94.36,1.1
					c25.83-36.26,51.65-72.52,77.48-108.78c-9.32-25.83-18.65-51.67-27.97-77.5C359.5,561.01,304.42,561.69,249.33,562.38z"/>
				<path class="st27" d="M253.61,588.11c17.67,4.26,45.39,8.67,78.88,4.59c39.83-4.85,69.51-19.48,86.22-29.35
					c-10.02-8.67-25.87-19.48-47.24-23.85C306.93,526.32,256.13,585.09,253.61,588.11z"/>
				<path class="st29" d="M294.67,745.79c26.21-47.06,52.42-94.12,78.63-141.17c-57.83,21.87-109.63,28.22-139.77,15.55
					c1.21,2.43,2.77,4.82,4.79,7.03c6.55,7.15,15.21,9.53,32.4,11.54c15.42,1.8,36.74,3.17,62.67,1.44
					c-20.89,35.11-41.78,70.23-62.66,105.34C278.71,745.6,286.69,745.7,294.67,745.79z"/>
				<g>
					<path class="st0" d="M245.07,601.59c-0.48,0-0.9-0.34-0.98-0.83c-0.41-2.39-0.26-5.03,0.45-7.85c0.13-0.54,0.68-0.86,1.21-0.73
						c0.54,0.13,0.86,0.68,0.73,1.21c-0.64,2.55-0.78,4.91-0.42,7.02c0.09,0.54-0.27,1.06-0.82,1.16
						C245.18,601.59,245.12,601.59,245.07,601.59z"/>
					<path class="st0" d="M292.38,619.58c0,0-0.01,0-0.01,0c-4.87-0.06-9.44-0.29-13.59-0.66c-0.55-0.05-0.96-0.54-0.91-1.09
						c0.05-0.55,0.53-0.96,1.09-0.91c4.1,0.37,8.62,0.59,13.43,0.66c0.55,0.01,0.99,0.46,0.99,1.01
						C293.38,619.14,292.93,619.58,292.38,619.58z M305.91,619.38c-0.53,0-0.98-0.42-1-0.96c-0.02-0.55,0.41-1.02,0.96-1.04
						c4.26-0.17,8.8-0.43,13.47-0.8c0.55-0.04,1.03,0.37,1.07,0.92s-0.37,1.03-0.92,1.07c-4.7,0.36-9.26,0.63-13.55,0.8
						C305.94,619.38,305.93,619.38,305.91,619.38z M332.9,617.33c-0.5,0-0.94-0.38-0.99-0.89c-0.06-0.55,0.34-1.04,0.89-1.1
						c4.36-0.47,8.87-1.02,13.41-1.63c0.55-0.07,1.05,0.31,1.12,0.86c0.07,0.55-0.31,1.05-0.86,1.12
						c-4.56,0.61-9.08,1.16-13.46,1.63C332.97,617.32,332.93,617.33,332.9,617.33z M265.51,616.87c-0.08,0-0.15-0.01-0.23-0.03
						c-5.24-1.22-9.58-2.87-12.89-4.9c-0.47-0.29-0.62-0.9-0.33-1.38c0.29-0.47,0.9-0.62,1.38-0.33c3.13,1.92,7.27,3.49,12.3,4.66
						c0.54,0.12,0.87,0.66,0.75,1.2C266.37,616.56,265.96,616.87,265.51,616.87z"/>
					<path class="st0" d="M363.43,619.04c-0.17,0-0.33-0.04-0.49-0.13c-0.48-0.27-0.65-0.88-0.38-1.36l2.64-4.71
						c-1.42,0.24-3.22,0.54-5.34,0.88c-0.54,0.09-1.06-0.28-1.15-0.83c-0.09-0.54,0.29-1.06,0.83-1.14
						c3.33-0.53,5.87-0.97,7.38-1.23c0.38-0.07,0.77,0.09,0.99,0.41c0.22,0.32,0.24,0.73,0.06,1.07l-3.67,6.54
						C364.12,618.85,363.78,619.04,363.43,619.04z"/>
					<path class="st0" d="M305.35,722.37c-0.17,0-0.33-0.04-0.49-0.13c-0.48-0.27-0.65-0.88-0.38-1.36l7.26-12.92
						c0.27-0.48,0.88-0.65,1.36-0.38c0.48,0.27,0.65,0.88,0.38,1.36l-7.26,12.92C306.04,722.18,305.7,722.37,305.35,722.37z
						 M319.87,696.53c-0.17,0-0.33-0.04-0.49-0.13c-0.48-0.27-0.65-0.88-0.38-1.36l7.26-12.92c0.27-0.48,0.88-0.65,1.36-0.38
						c0.48,0.27,0.65,0.88,0.38,1.36l-7.26,12.92C320.56,696.35,320.22,696.53,319.87,696.53z M334.39,670.7
						c-0.17,0-0.33-0.04-0.49-0.13c-0.48-0.27-0.65-0.88-0.38-1.36l7.26-12.92c0.27-0.48,0.88-0.65,1.36-0.38s0.65,0.88,0.38,1.36
						l-7.26,12.92C335.08,670.52,334.74,670.7,334.39,670.7z M348.91,644.87c-0.17,0-0.33-0.04-0.49-0.13
						c-0.48-0.27-0.65-0.88-0.38-1.36l7.26-12.92c0.27-0.48,0.88-0.65,1.36-0.38s0.65,0.88,0.38,1.36l-7.26,12.92
						C349.6,644.68,349.26,644.87,348.91,644.87z"/>
					<path class="st0" d="M294.42,741.82c-0.17,0-0.33-0.04-0.49-0.13c-0.48-0.27-0.65-0.88-0.38-1.36l3.67-6.54
						c0.27-0.48,0.88-0.65,1.36-0.38c0.48,0.27,0.65,0.88,0.38,1.36l-3.67,6.54C295.11,741.64,294.77,741.82,294.42,741.82z"/>
				</g>
				<path class="st30" d="M333.39,641.17c-0.16,0-0.33-0.04-0.48-0.12c-0.48-0.26-0.66-0.87-0.4-1.36l6.43-11.75
					c0.27-0.48,0.87-0.66,1.36-0.4c0.48,0.26,0.66,0.87,0.4,1.36l-6.43,11.75C334.09,640.98,333.75,641.17,333.39,641.17z"/>
			</g>
			<path class="st4" d="M401.78,396.35l-33.72-13.22l-18.31,46.69c-2.4,66.79,2.63,77.55,6.48,77.91
				c3.56,0.33,10.59-7.85,25.06-57.11c1.57-5.36,3.4-10.65,5.44-15.85C391.74,421.96,396.76,409.15,401.78,396.35z"/>
			<path class="st31" d="M403.11,392.96c-12.39,5.48-24.77,10.96-37.16,16.44c-2.67-0.74-5.34-1.47-8.02-2.21
				c-2.13,6.01-4.25,12.01-6.38,18.02c2.26-3.06,4.53-6.12,6.79-9.18c9.88,5.17,19.76,10.35,29.64,15.52
				C393.02,418.68,398.07,405.82,403.11,392.96z"/>
			<path id="XMLID_00000010282139055299745390000002911807535589166775_" class="st4" d="M398.81,370.13L398.81,370.13
				c8,1.12,14.13,7.68,14.7,15.74l1.24,17.57c0.83,11.78-9.48,21.3-21.15,19.52c-12.75-1.94-25.49-3.88-38.24-5.82
				c-0.15-0.02-0.26-0.17-0.22-0.32l4.03-18.9C363.05,379.68,380.36,367.56,398.81,370.13z"/>
			<path class="st31" d="M408.72,384.64c-6.41,6.45-18.18,7.17-29.8,2.15c-0.23,1.37-1.3,6.62-6.11,10.42
				c-6.31,4.99-13.77,3.28-14.7,3.05c-0.17-6.29-0.34-12.57-0.51-18.86l17.86-12.15c12.48,2.79,24.96,5.58,37.44,8.37
				C411.78,381.05,410.09,383.26,408.72,384.64z"/>
			<path class="st32" d="M414.5,375.69c0.11,0.35,0.89,2.94-0.59,5.42c-5.82,9.74-36.31,0.16-39.79-0.95
				c0.13,0.54,2.04,9.23-4.16,15.44c-4.69,4.7-10.73,4.68-11.86,4.66c-0.39,3.6-0.79,7.2-1.18,10.79c0.25,0.62,2.07,5.32,0.29,6.77
				c-0.93,0.76-2.45,0.31-2.82,0.2c-7.51-2.21-12.43-35.35-3.84-39.88c1.75-0.92,3.87-0.31,5.06,0.15c-0.26-1.15-0.44-2.82,0.21-4.5
				C360.91,360.8,410.28,362.43,414.5,375.69z"/>
			<path id="XMLID_00000080911358671516183470000014458591203849935490_" class="st4" d="M368.25,401.23
				c-6.82-8.07-14.93-11.46-19.68-8.94c-2.45,1.3-3.29,3.79-3.42,4.16c-1.93,5.98,4.71,14.4,12.1,15.95
				c2.05,0.43,3.81,0.26,4.86,0.09"/>
			<path class="st33" d="M396.4,413.2c-0.92,0-2.03-0.15-3.18-0.63c-1.75-0.72-2.86-1.88-3.49-2.73c-0.33-0.44-0.24-1.07,0.21-1.4
				c0.44-0.33,1.07-0.24,1.4,0.21c0.48,0.64,1.33,1.52,2.65,2.07c1.63,0.68,3.12,0.48,3.87,0.31c0.54-0.13,1.07,0.21,1.2,0.75
				c0.12,0.54-0.21,1.08-0.75,1.2C397.85,413.09,397.19,413.2,396.4,413.2z"/>
			<path id="XMLID_00000180348656053129174740000004187121206763115684_" class="st34" d="M268.31,508.79
				c-10.9-10.15-21.8-20.3-32.71-30.45c11.64-11.31,21.87-20.43,29.7-27.18c27.75-23.91,35.29-26.45,42.19-27.06
				c8.82-0.78,20.82,1.22,25.91,2.06c6.84,1.14,12.45,2.55,16.34,3.64c0.35,0.62,7.24,12.59,20.37,12.91
				c8.36,0.21,14.18-4.43,15.77-5.79c3.4,0.6,8.12,1.63,13.56,3.45c5.79,1.94,11.36,3.81,15.59,6.88
				c6.39,4.64,7.71,10.53,14.68,33.48c1.57,5.15,4.08,13.36,7.34,23.62c-16.71,4.23-33.42,8.47-50.13,12.7
				c-0.54,4.67-0.85,9.89-0.74,15.58c0.21,11,1.95,20.48,3.94,27.99c-21.68,12.44-55.38,28.2-99.1,35.3
				c-27.52,4.47-51.77,4.33-70.85,2.75C236.21,568.72,252.26,538.75,268.31,508.79z"/>
			<g>
				<path class="st35" d="M386.27,535.23c0,0.04-0.01,0.07-0.01,0.11c-34.58,6.6-69.15,13.21-103.73,19.81
					c9.83-5.73,19.67-11.45,29.5-17.18c4.94-15.03,9.89-30.05,14.83-45.08c-12.95,12.78-25.91,25.57-38.86,38.35
					c-14.52,10.39-29.04,20.79-43.57,31.18c16.96,7.85,41.49,16.7,72,19.72c8.45,0.84,16.61,1.14,24.48,1.05
					c20.15-7.09,36.69-15.38,49.21-22.56C388.28,553.72,386.68,545.12,386.27,535.23z"/>
				<path class="st35" d="M415.04,447.27c-4.23-3.07-9.8-4.94-15.59-6.88c-3.72-1.25-7.09-2.11-9.94-2.73
					c15.45,9.3,21.39,19.84,23.69,24.8c2.43,5.23,3.94,11.02,5.5,16.97c2.9,11.08,4.33,20.79,5.06,28.31
					c4.43-1.12,8.86-2.24,13.29-3.37c-3.26-10.26-5.77-18.46-7.34-23.62C422.75,457.8,421.43,451.9,415.04,447.27z"/>
				<path class="st35" d="M389.33,493.12c-0.58,7.92-1.15,15.85-1.73,23.77c3.98-1.01,7.96-2.02,11.95-3.03
					C396.14,506.95,392.74,500.03,389.33,493.12z"/>
			</g>
			<path class="st36" d="M293.81,527.2c-0.25,0-0.51-0.1-0.7-0.29c-0.39-0.39-0.39-1.02-0.01-1.41l33.05-33.3
				c0.39-0.39,1.02-0.39,1.41-0.01c0.39,0.39,0.39,1.02,0.01,1.41l-33.05,33.3C294.32,527.1,294.07,527.2,293.81,527.2z"/>
			<path class="st36" d="M386.92,518.06c-0.04,0-0.09,0-0.13-0.01c-0.55-0.07-0.93-0.57-0.86-1.12c0.8-6.03,1.46-12.14,1.97-18.18
				c0.44-5.21,0.78-10.5,1.01-15.72c0.02-0.55,0.51-0.96,1.04-0.96c0.55,0.02,0.98,0.49,0.96,1.04c-0.23,5.25-0.57,10.56-1.01,15.8
				c-0.51,6.07-1.18,12.22-1.98,18.28C387.84,517.7,387.41,518.06,386.92,518.06z"/>
			<g>
				<path id="XMLID_00000039834120717524098720000002737662447010692993_" class="st4" d="M240.21,482.63
					c-3.99,3.82-27.6,27.02-22.66,54.8c0.76,4.3,2.6,14.61,10.53,22.1c33.03,31.21,158.68,1.07,158.72,1.1c0,0,0.01,0.01,0.02,0.01
					c0.01,0.01,0.02,0.01,0.04,0.02c0.11,0.06,0.35,0.19,0.65,0.35c1,0.54,2.92,1.57,5.36,2.8c14.78,7.41,17.97,6.61,19.49,5.55
					c1.1-0.76,1.69-1.82,2.03-2.59c-4.18-15.1-8.36-30.2-12.54-45.31c-12.32-2.52-25.84-4.63-40.42-5.95
					c-31.96-2.9-60.31-1.23-83.6,1.97C265.28,505.86,252.74,494.24,240.21,482.63z"/>
				<path class="st0" d="M425.56,566c-0.22,0-0.44-0.07-0.62-0.21l-12.05-9.51c-0.43-0.34-0.51-0.97-0.17-1.4
					c0.34-0.43,0.97-0.51,1.4-0.17l12.05,9.51c0.43,0.34,0.51,0.97,0.17,1.4C426.15,565.87,425.85,566,425.56,566z"/>
				<path class="st33" d="M414.38,567.76c-0.2,0-0.41-0.06-0.58-0.19l-12.06-8.66c-0.45-0.32-0.55-0.95-0.23-1.4
					c0.32-0.45,0.95-0.55,1.4-0.23l12.06,8.66c0.45,0.32,0.55,0.95,0.23,1.4C415,567.62,414.69,567.76,414.38,567.76z"/>
				<path class="st33" d="M251.26,522.25c-0.46,0-0.87-0.31-0.97-0.77c-0.12-0.54,0.21-1.08,0.75-1.2c4.4-1.02,8.89-1.85,13.35-2.49
					c4.42-0.63,8.92-1.07,13.37-1.31c0.55-0.02,1.02,0.39,1.05,0.94s-0.39,1.02-0.94,1.05c-4.4,0.24-8.84,0.68-13.2,1.3
					c-4.41,0.62-8.84,1.45-13.18,2.46C251.41,522.24,251.34,522.25,251.26,522.25z"/>
			</g>
			<path class="st30" d="M312.22,676.77c-0.17,0-0.35-0.04-0.51-0.14c-0.47-0.28-0.63-0.9-0.35-1.37l20.24-34.02l-22.47,0.73
				c-0.58,0.05-1.01-0.42-1.03-0.97c-0.02-0.55,0.42-1.01,0.97-1.03l24.3-0.79c0.37-0.02,0.71,0.18,0.89,0.49
				c0.19,0.32,0.19,0.71,0,1.02l-21.17,35.59C312.89,676.59,312.56,676.77,312.22,676.77z"/>
			<path class="st30" d="M365.09,747.62c-0.2,0-0.4-0.06-0.58-0.18c-0.45-0.32-0.56-0.94-0.24-1.39l64.85-91.55
				c0.32-0.45,0.94-0.56,1.39-0.24c0.45,0.32,0.56,0.94,0.24,1.39l-64.85,91.55C365.71,747.47,365.4,747.62,365.09,747.62z"/>
			<path class="st37" d="M344.44,566.21c-38.76,2.29-83.71,4.95-112.85-23.05c-3.95-3.8-9.38-9.86-14.36-19.06
				c-0.52,4.27-0.5,8.73,0.32,13.32c0.76,4.3,2.6,14.61,10.53,22.1c33.03,31.21,158.68,1.07,158.72,1.1
				C386.61,559.78,373.31,564.5,344.44,566.21z"/>
			<path class="st31" d="M277.82,517.47c-12.54-11.61-25.07-23.23-37.61-34.84c-1.31,1.25-4.74,4.6-8.57,9.51L277.82,517.47z"/>
			<path class="st37" d="M359.75,393.88c-4.26-2.48-8.33-3.11-11.18-1.6c-2.45,1.3-3.29,3.79-3.42,4.16
				c-1.7,5.27,3.25,12.42,9.5,15.11c-1.45-3.92-5.58-9.86-3.37-13.89C352.66,395.18,356.04,394.19,359.75,393.88z"/>
		</g>
		<path class="st38" d="M340.29,427.48c-2.12-0.45-4.42-0.9-6.88-1.31c-5.09-0.85-17.09-2.84-25.91-2.06
			c-6.9,0.61-14.44,3.15-42.19,27.06c-7.83,6.75-18.05,15.87-29.7,27.18c3.57,3.32,7.14,6.65,10.71,9.97
			c9.38-7.88,17.45-15.08,24.15-21.28c18.89-17.46,24.72-24.85,37.26-31.18C316.17,431.58,326.84,428.22,340.29,427.48z"/>
		<g>
			<g>
				<g>
					<path class="st12" d="M913.77,540.13c-0.25-4.51-0.23-11.08,1.14-19.12c0,0,0.15-0.89,0.33-1.83
						c4.29-21.79,13.23-36,11.62-36.83c-0.88-0.45-4.35,3.4-15.25,21.17c15.92-40.66,14.13-43.77-7.22-5.37
						c14.83-41.97,12.76-44.56-7.51-4.71c15.15-41.57,7.57-34.18-14.01,3.17c1.12-6.25,2.33-14.69,0.6-15.25
						c-2.17-0.71-7.87,11.28-8.47,12.56c-1.1,2.34-4.72,10.25-7.74,25.06c-0.91,4.45-1.97,10.56-2.7,17.94
						C880.96,537.99,897.36,539.06,913.77,540.13z"/>
					<path class="st39" d="M900.97,515.45c-0.03,0-0.07,0-0.1-0.01c-0.55-0.06-0.95-0.55-0.89-1.1c0.38-3.73-0.21-6.3-1.77-7.65
						c-1.78-1.55-4.65-1.22-7.43-0.9c-3.02,0.35-6.15,0.71-8.08-1.39c-1.58-1.73-1.82-4.5-0.72-8.48c0.15-0.53,0.7-0.84,1.23-0.7
						c0.53,0.15,0.84,0.7,0.7,1.23c-0.89,3.22-0.8,5.44,0.27,6.6c1.24,1.35,3.74,1.06,6.38,0.76c3.05-0.35,6.52-0.75,8.97,1.37
						c2.07,1.8,2.89,4.95,2.44,9.36C901.91,515.07,901.48,515.45,900.97,515.45z"/>
					<path class="st39" d="M914.26,505.61c-0.22,0-0.43-0.07-0.62-0.21c-4.18-3.28-8.72-6.1-13.49-8.37
						c-2.62-1.25-5.36-2.35-8.13-3.28c-0.52-0.17-0.81-0.74-0.63-1.27s0.74-0.81,1.26-0.63c2.85,0.95,5.66,2.08,8.36,3.37
						c4.9,2.33,9.57,5.23,13.87,8.6c0.43,0.34,0.51,0.97,0.17,1.4C914.85,505.48,914.55,505.61,914.26,505.61z"/>
				</g>
				<path class="st12" d="M757.54,508.5c-11.58,3.12-23.17,6.24-34.75,9.36c2.54,9.7,5.09,19.41,7.63,29.11
					c6.01,14.45,19.83,19.5,27.34,15.47c5.03-2.69,7.61-9.66,7.5-16.93C762.69,533.18,760.12,520.84,757.54,508.5z"/>
				<path id="XMLID_00000018937665828605838460000017795275830957197186_" class="st26" d="M640.18,658.47
					c7.08-60.26,34.54-99.02,48.43-104.79c13.67-5.68,27.99-6.5,27.99-6.5c3.49-0.2,6.43-0.15,8.53-0.05
					c-0.23-2.59-0.45-5.18-0.68-7.77c14.61-0.49,29.22-0.98,43.82-1.47c0.36,2.47,0.72,4.94,1.08,7.41c2.75,0,6.68,0.11,11.38,0.62
					c0,0,9.77,1.06,18.4,3.64c10.81,3.24,30.7,17.09,49.71,41.04c3.36-22.17,6.73-44.33,10.09-66.5
					c19.27,2.81,38.55,5.63,57.82,8.44c-0.8,11.72-2.22,29.25-4.86,50.49c-7.39,59.64-14.24,67.48-18.34,71.08
					c-21.54,18.92-62.1,4.55-72.23,0.69c0.23,3.48,0.46,6.96,0.69,10.44c-40.24,0.04-80.47,0.08-120.71,0.12
					C680.93,663.06,660.55,660.76,640.18,658.47z"/>
				<path class="st29" d="M874.18,526.32c-5.08-0.74-10.17-1.48-15.25-2.23c-2.2,14.48-4.4,28.97-6.59,43.45
					C859.62,553.81,866.9,540.07,874.18,526.32z"/>
				<g>
					<path class="st27" d="M767.24,551.27c7.48-0.44,16.59-0.26,26.75,1.53c8.64,1.52,16.36,3.91,23.15,6.65
						c-7.14-5.2-13.4-8.52-18.01-9.9c-8.63-2.58-18.4-3.64-18.4-3.64c-4.7-0.51-8.64-0.62-11.38-0.62
						c-0.36-2.47-0.72-4.94-1.08-7.41c-1.33,0.04-2.65,0.09-3.98,0.13C765.27,542.43,766.26,546.85,767.24,551.27z"/>
					<path class="st27" d="M821.32,654.8c4.98,1.9,17.35,6.34,31.18,8.11c-10.53-21.33-21.06-42.66-31.58-63.99
						c-0.01,22.1-0.02,44.21-0.02,66.31c0.37,0,0.74,0,1.11,0C821.78,661.76,821.55,658.28,821.32,654.8z"/>
					<path class="st27" d="M891.06,629.38c-2.43,10.86-5.15,21.2-8.06,31.03c3.82-1.48,7.39-3.52,10.55-6.3
						c4.1-3.6,10.96-11.44,18.34-71.08c2.63-21.24,4.06-38.77,4.86-50.49c-4.75-0.69-9.5-1.39-14.26-2.08
						C902.17,559.42,899.21,592.92,891.06,629.38z"/>
				</g>
				<path class="st29" d="M733.96,553.34c0.64-4.79,1.27-9.59,1.91-14.38c-3.81,0.13-7.62,0.26-11.43,0.38
					c0.23,2.59,0.45,5.18,0.68,7.77c-2.1-0.09-5.04-0.15-8.53,0.05c0,0-14.32,0.83-27.99,6.5c-7.67,3.18-19.47,16.44-29.69,37.81
					c8.33-12.25,20.67-25.91,39.08-33.19C711.17,553.09,723.9,552.55,733.96,553.34z"/>
				<path class="st30" d="M821.32,655.8c-0.55,0-1-0.44-1-0.99l-0.4-55.87c0-0.55,0.44-1,0.99-1.01c0,0,0,0,0.01,0
					c0.55,0,1,0.44,1,0.99l0.4,55.88C822.33,655.34,821.88,655.79,821.32,655.8C821.33,655.8,821.33,655.8,821.32,655.8z"/>
				<path class="st30" d="M706.7,645.97c-0.13,0-0.26-0.03-0.39-0.08c-0.51-0.22-0.75-0.8-0.53-1.31l13.86-32.67
					c0.22-0.51,0.8-0.74,1.31-0.53c0.51,0.22,0.75,0.8,0.53,1.31l-13.86,32.67C707.46,645.74,707.09,645.97,706.7,645.97z"/>
				<path class="st30" d="M847.24,601.23c-0.05,0-0.11,0-0.17-0.01c-0.54-0.09-0.91-0.61-0.82-1.15l1.61-9.63
					c0.09-0.54,0.61-0.91,1.15-0.82c0.54,0.09,0.91,0.61,0.82,1.15l-1.61,9.63C848.14,600.88,847.72,601.23,847.24,601.23z"/>
				<path class="st40" d="M761.27,526.56c-1.68-1.36-13.66-10.7-27.4-6.9c-4.11,1.14-7.29,3.15-9.54,4.98
					c1.25,4.45,2.5,8.91,3.75,13.36c1.49-3.83,2.98-7.67,4.47-11.5c10.26,3.35,20.52,6.71,30.78,10.06
					C762.65,533.23,761.96,529.89,761.27,526.56z"/>
				<path id="XMLID_00000104708257992221933950000010781654586680628662_" class="st12" d="M761.23,476.56L761.23,476.56
					c8.08-0.1,15.13,5.46,16.91,13.34l3.88,17.18c2.6,11.52-6.15,22.48-17.96,22.49c-12.89,0.01-25.79,0.01-38.68,0.02
					c-0.16,0-0.28-0.13-0.27-0.29l1.13-19.29C727.33,491.39,742.6,476.8,761.23,476.56z"/>
				<path class="st40" d="M774.95,483.15c-2.93-1.67-6.97-2.1-8.12-2.2l-36.43,14.32c-0.74,1.38-1.39,2.82-1.95,4.3
					c0.62,5.13,1.23,10.26,1.85,15.39c0.58,0.16,3.48,0.89,6.19-0.79c2.69-1.66,4.09-5.03,3.5-8.48c5.07,0.97,15.39,2.08,25.19-3.46
					c4.56-2.58,11.59-8.07,12.81-12.94C777.38,487.01,776.34,484.93,774.95,483.15z"/>
				<path id="XMLID_00000036968225795267827980000001064840884275260856_" class="st0" d="M781.16,479.39
					c1.38,4.06-0.43,8-0.87,8.97c-4.99,10.87-23.3,15.69-45.64,12.58c0.24,0.26,3.1,3.47,2.07,7.75c-0.75,3.1-3.24,5.53-6.42,6.27
					c0.52,0.67,3.54,4.68,2.67,10.23c-0.55,3.56-2.66,7.52-6.12,9.23c-6.44,3.18-15.73-2.34-19.48-7.84
					c-6.26-9.17-2.17-25.73,11.3-40.28c-5.58,7.85-15.11,11.26-23.23,8.67c-10.76-3.43-15.39-16.26-12.61-26.14
					c3.48-12.37,18.57-19.96,28.92-14.95c9.76,4.72,14.64,20.31,6.39,33.3c2.6-3.96,8.07-11.07,17.43-15.36
					C752.93,463.85,777.43,468.46,781.16,479.39z"/>
				<path class="st41" d="M780.29,488.36c0.27-0.59,1.05-2.29,1.3-4.44c-4.91-10.76-29.45-11.43-30.63-11.45
					c-12.77-0.23-22.32,4.6-26.63,7.15c0,0,0,0,0-0.01c-2.87,2.81-4.89,5.58-6.19,7.56c0.18-0.29,0.35-0.58,0.53-0.88l0,0l0,0
					c7.49-12.8,2.63-27.8-6.92-32.42c-5.35-2.59-11.97-1.8-17.59,1.26c-4.55,7.42-6.5,19.27,0.16,27.03
					c5.05,5.89,13.88,8.06,22.77,6.11c-9.43,15.26-11.52,30.04-5.02,37.84c3.33,3.99,8.04,5.12,10.07,5.58
					c2.39,0.54,4.9,0.72,7.46,0.61c1.83-1.97,2.99-4.63,3.37-7.11c0.86-5.55-2.15-9.56-2.67-10.23c3.18-0.74,5.68-3.17,6.42-6.27
					c1.03-4.28-1.84-7.5-2.07-7.75C756.98,504.06,775.3,499.23,780.29,488.36z"/>
				<path id="XMLID_00000098913552763435029400000003577368868106147481_" class="st12" d="M737.47,513.75
					c-4.14-4.95-12.75-8.46-17.44-4.9c-2.25,1.7-2.7,4.35-2.75,4.63c-1,6.41,7.39,13.01,14.36,13.94c2.71,0.36,4.15-0.27,4.82-0.65"
					/>
				<path class="st42" d="M720.03,508.84c-2.25,1.7-2.7,4.35-2.75,4.63c-0.71,4.52,3.28,9.14,8.13,11.79
					c-3.24-5.26-2.83-11.09,0.09-13.9c1.82-1.75,4.37-2.1,6.26-2.08C727.72,507.21,723.06,506.55,720.03,508.84z"/>
				<path class="st39" d="M764.07,519.59c-0.61,0-1.27-0.07-1.96-0.24c-1.83-0.45-3.11-1.43-3.86-2.17
					c-0.39-0.39-0.4-1.02-0.01-1.41c0.39-0.39,1.02-0.4,1.41-0.01c0.57,0.56,1.54,1.31,2.94,1.65c1.71,0.42,3.16,0.01,3.87-0.28
					c0.51-0.21,1.1,0.05,1.3,0.56c0.21,0.51-0.05,1.09-0.56,1.3C766.56,519.25,765.44,519.59,764.07,519.59z"/>
				<path class="st43" d="M851.07,594.24"/>
			</g>
			<g>
				<g>
					<polygon class="st44" points="911.69,821.4 911.69,849.9 965.84,849.9 965.84,823.23 					"/>
					<g>
						<polygon class="st8" points="903.54,874.67 1000.08,874.63 969.02,855.79 969.01,841.78 903.52,841.81 						"/>
						<path class="st0" d="M956.04,856.8c-0.55,0-1-0.45-1-1c0-0.55,0.45-1,1-1l12.98,0l0,0c0.55,0,1,0.45,1,1c0,0.55-0.45,1-1,1
							L956.04,856.8L956.04,856.8z"/>
						<path class="st0" d="M956.04,853.85c-0.55,0-1-0.45-1-1c0-0.55,0.45-1,1-1l12.98,0l0,0c0.55,0,1,0.45,1,1c0,0.55-0.45,1-1,1
							L956.04,853.85L956.04,853.85z"/>
						<path class="st0" d="M956.04,850.9c-0.55,0-1-0.45-1-1c0-0.55,0.45-1,1-1l12.98,0l0,0c0.55,0,1,0.45,1,1c0,0.55-0.45,1-1,1
							L956.04,850.9L956.04,850.9z"/>
						<path class="st0" d="M956.04,847.95c-0.55,0-1-0.45-1-1c0-0.55,0.45-1,1-1l12.98-0.01l0,0c0.55,0,1,0.45,1,1
							c0,0.55-0.45,1-1,1L956.04,847.95L956.04,847.95z"/>
						<polygon class="st7" points="1000.08,874.63 988.8,867.79 903.53,867.83 903.54,874.67 						"/>
					</g>
					<path id="XMLID_00000056401087728690152860000018418502808621865909_" class="st2" d="M889.1,641.76l-105.49,0l0,86.8l100.43,0
						v105.24l88.22,1.22l0-110.09C972.27,678.99,935.03,641.76,889.1,641.76z"/>
				</g>
				<path class="st45" d="M972.27,835.01l0-110.09c0-9.64-1.66-18.88-4.67-27.49l-74.86,136.47L972.27,835.01z"/>
				<g>
					<polygon class="st44" points="854.22,821.4 854.22,849.9 908.37,849.9 908.37,823.23 					"/>
					<g>
						<polygon class="st46" points="849.07,874.67 945.61,874.63 914.55,855.79 914.54,841.78 849.05,841.81 						"/>
						<path class="st0" d="M901.57,856.8c-0.55,0-1-0.45-1-1c0-0.55,0.45-1,1-1l12.98,0l0,0c0.55,0,1,0.45,1,1c0,0.55-0.45,1-1,1
							L901.57,856.8L901.57,856.8z"/>
						<path class="st0" d="M901.57,853.85c-0.55,0-1-0.45-1-1c0-0.55,0.45-1,1-1l12.98,0l0,0c0.55,0,1,0.45,1,1c0,0.55-0.45,1-1,1
							L901.57,853.85L901.57,853.85z"/>
						<path class="st0" d="M901.57,850.9c-0.55,0-1-0.45-1-1c0-0.55,0.45-1,1-1l12.98,0l0,0c0.55,0,1,0.45,1,1c0,0.55-0.45,1-1,1
							L901.57,850.9L901.57,850.9z"/>
						<path class="st0" d="M901.57,847.95c-0.55,0-1-0.45-1-1c0-0.55,0.45-1,1-1l12.98-0.01l0,0c0.55,0,1,0.45,1,1
							c0,0.55-0.45,1-1,1L901.57,847.95L901.57,847.95z"/>
						<polygon class="st0" points="945.61,874.63 934.32,867.79 849.06,867.83 849.07,874.67 						"/>
					</g>
				</g>
				<path id="XMLID_00000160895938233052435460000017499833975446724504_" class="st3" d="M834.63,641.76l-105.49,0l0,86.8l100.43,0
					v105.24l88.22,1.22l0-110.09C917.8,678.99,880.56,641.76,834.63,641.76z"/>
				<path class="st47" d="M917.8,835.01l0-110.09c0-2.67-0.14-5.3-0.38-7.9l-76.13,116.93L917.8,835.01z"/>
			</g>
			<path class="st12" d="M649.38,664.24c3.07,15.05,9.45,22.49,14.27,26.44c28.92,23.7,85.6-6.86,136.33-6.67
				c18.69,0.07,33.95,1.54,43.73,2.74c8.14,1.06,15.52,2.35,15.92,1.07c0.32-1.02-4.62-3.98-23.43-11.5
				c42.78,8.9,45.54,6.61,4.09-8.02c43.88,7.6,46.09,5.13,3.39-8.2c43.54,7.98,34.98,1.74-5.47-13.29
				c6.35,0.06,14.88-0.16,15.15-1.96c0.09-0.61-0.65-2.24-13.81-6.25c-24.63-7.5-44.09-8.72-44.09-8.72
				c-35.36-2.21-72.67,2.57-84.15,4.16"/>
			<path class="st26" d="M816.31,630.3c1.07,20.33,2.14,40.66,3.21,60.99c-60.27,51.83-135.88,44.41-163.72,7.34
				c-26.13-34.8-4.76-88.56-2.97-92.9c19.49,9.44,38.99,18.87,58.48,28.31c14.01-2.22,29.56-3.98,46.45-4.81
				C779.35,628.16,799.02,628.81,816.31,630.3z"/>
			<path class="st30" d="M689.57,644.11c-0.39,0-0.76-0.23-0.92-0.62c-0.21-0.51,0.03-1.09,0.54-1.31l21.74-9.07
				c0.08-0.03,0.16-0.05,0.24-0.07c13.94-2.01,28.15-3.44,42.22-4.24c20.9-1.18,42.09-1.02,63,0.49c0.55,0.04,0.96,0.52,0.92,1.07
				s-0.53,0.97-1.07,0.92c-20.81-1.5-41.92-1.66-62.74-0.48c-13.97,0.79-28.08,2.21-41.92,4.2l-21.62,9.02
				C689.83,644.09,689.7,644.11,689.57,644.11z"/>
		</g>
		<g>
			<g>
				<polygon class="st11" points="785.21,821.4 785.21,849.9 839.36,849.9 839.36,823.23 				"/>
				<g>
					<polygon class="st48" points="778.06,874.67 874.6,874.63 843.54,855.79 843.53,841.78 778.04,841.81 					"/>
					<path class="st0" d="M830.56,856.8c-0.55,0-1-0.45-1-1c0-0.55,0.45-1,1-1l12.98,0l0,0c0.55,0,1,0.45,1,1c0,0.55-0.45,1-1,1
						L830.56,856.8L830.56,856.8z"/>
					<path class="st0" d="M830.56,853.85c-0.55,0-1-0.45-1-1c0-0.55,0.45-1,1-1l12.98,0l0,0c0.55,0,1,0.45,1,1c0,0.55-0.45,1-1,1
						L830.56,853.85L830.56,853.85z"/>
					<path class="st0" d="M830.56,850.9c-0.55,0-1-0.45-1-1c0-0.55,0.45-1,1-1l12.98,0l0,0c0.55,0,1,0.45,1,1c0,0.55-0.45,1-1,1
						L830.56,850.9L830.56,850.9z"/>
					<path class="st0" d="M830.56,847.95c-0.55,0-1-0.45-1-1c0-0.55,0.45-1,1-1l12.98-0.01l0,0c0.55,0,1,0.45,1,1c0,0.55-0.45,1-1,1
						L830.56,847.95L830.56,847.95z"/>
					<polygon class="st7" points="874.6,874.63 863.32,867.79 778.05,867.83 778.06,874.67 					"/>
				</g>
				<path class="st6" d="M763.62,641.76l-105.49,0l0,86.8l100.43,0v105.24l88.22,1.22l0-110.09
					C846.79,678.99,809.55,641.76,763.62,641.76z"/>
			</g>
			<g>
				<polygon class="st11" points="730.74,821.4 730.74,849.9 784.89,849.9 784.89,823.23 				"/>
				<g>
					<polygon class="st48" points="723.59,874.67 820.13,874.63 789.07,855.79 789.06,841.78 723.57,841.81 					"/>
					<path class="st0" d="M776.09,856.8c-0.55,0-1-0.45-1-1c0-0.55,0.45-1,1-1l12.98,0l0,0c0.55,0,1,0.45,1,1c0,0.55-0.45,1-1,1
						L776.09,856.8L776.09,856.8z"/>
					<path class="st0" d="M776.09,853.85c-0.55,0-1-0.45-1-1c0-0.55,0.45-1,1-1l12.98,0l0,0c0.55,0,1,0.45,1,1c0,0.55-0.45,1-1,1
						L776.09,853.85L776.09,853.85z"/>
					<path class="st0" d="M776.09,850.9c-0.55,0-1-0.45-1-1c0-0.55,0.45-1,1-1l12.98,0l0,0c0.55,0,1,0.45,1,1c0,0.55-0.45,1-1,1
						L776.09,850.9L776.09,850.9z"/>
					<path class="st0" d="M776.09,847.95c-0.55,0-1-0.45-1-1c0-0.55,0.45-1,1-1l12.98-0.01l0,0c0.55,0,1,0.45,1,1c0,0.55-0.45,1-1,1
						L776.09,847.95L776.09,847.95z"/>
					<polygon class="st7" points="820.13,874.63 808.84,867.79 723.58,867.83 723.59,874.67 					"/>
				</g>
				<path class="st7" d="M709.15,641.76l-105.49,0l0,86.8l100.43,0v105.24l88.22,1.22l0-110.09
					C792.32,678.99,755.08,641.76,709.15,641.76z"/>
			</g>
			<path class="st0" d="M846.79,819.35H704.1c-0.55,0-1-0.45-1-1s0.45-1,1-1h142.69c0.55,0,1,0.45,1,1S847.34,819.35,846.79,819.35z
				"/>
		</g>
		<path class="st28" d="M665.96,895.09h162.3c5.6,0,10.14-4.54,10.14-10.14v0c0-5.57-4.5-10.1-10.08-10.14
			c-9.93-0.06-16.33-0.12-29.25-0.18c0.37-14.32,1.29-112.75-76.41-180.41C655,635.32,554.79,623.26,468.08,663.8
			c-18.59-47.96-37.18-95.93-55.77-143.89c-1.93-4.98-7.4-7.59-12.48-5.97l-0.19,0.06c-5.49,1.75-8.41,7.73-6.41,13.14
			c31.23,84.13,62.47,168.26,93.7,252.39c35.76-33.99,89.3-40.66,130.7-16.97C662.59,788.28,683.53,844.24,665.96,895.09z"/>
		<path class="st22" d="M341.65,798.47h-42.33c-3.3,0-5.97-2.67-5.97-5.97l0,0c0-3.3,2.67-5.97,5.97-5.97h42.33
			c3.3,0,5.97,2.67,5.97,5.97l0,0C347.63,795.8,344.95,798.47,341.65,798.47z"/>
		<circle class="st6" cx="351.44" cy="853.18" r="25.75"/>
		<g>
			<path class="st11" d="M660.08,627.39c1.88,4.79,3.76,9.57,5.64,14.36c-11.87,0.16-23.73,0.31-35.6,0.47
				c-1.83-10.45-3.67-20.89-5.5-31.34L660.08,627.39z"/>
			<path class="st0" d="M597.73,545.28c-13.98,0.62-27.96,1.25-41.94,1.87c-0.37,3.89-3.71,45.21,24.36,64.54
				c2.07,1.43,18.66,12.85,27.21,7.03C619.17,610.68,608.56,574.5,597.73,545.28z"/>
			<path id="XMLID_00000047036887089565728460000011571872461424034982_" class="st48" d="M530.84,637.36
				c-20.56-3.05-41.12-6.11-61.68-9.16c8.66-39.86,24.42-70.07,40.67-75.56c6.44-2.18,14.84-3.69,14.84-3.69
				c7.04-1.01,14.75-1.71,23.03-1.84c2.77-0.05,5.46-0.03,8.08,0.05c2.07,7.35,5.05,15.68,9.38,24.49
				c9.21,18.74,20.88,32.16,30.04,40.95c2.94-14.62,4.87-32.07,3.9-51.65c-0.27-5.46-0.75-10.68-1.38-15.66
				c0.98,0.09,2.32,0.24,3.91,0.46c2.04,0.28,6.82,1,12.94,2.7c0,0,8.82,2.44,15.9,5.7c10.44,4.82,26.42,34.71,35.17,77.93
				c-7.26-0.28-14.52-0.56-21.78-0.85c0.12,3.61,0.24,7.21,0.36,10.82c-15.33,0.41-30.66,0.81-45.99,1.22
				c0.38,6.99,0.77,13.99,1.15,20.98c-22.92,0.37-45.85,0.75-68.77,1.12C530.7,656.03,530.77,646.69,530.84,637.36z"/>
			<path class="st49" d="M492.31,597.74c5.41-13.36,8.66-21.22,15.82-29.04c15.21-16.63,36.45-20.47,47.66-21.54
				c-2.62-0.07-5.32-0.09-8.08-0.05c-8.28,0.14-15.99,0.83-23.03,1.84c0,0-8.4,1.51-14.84,3.69c-16.26,5.49-32.01,35.7-40.67,75.56
				c4.3,0.64,8.61,1.28,12.91,1.92C484.14,621.39,487.16,610.46,492.31,597.74z"/>
			<path class="st50" d="M630.48,554.14c-7.08-3.27-15.9-5.7-15.9-5.7c-6.13-1.69-10.9-2.41-12.94-2.7
				c-1.59-0.22-2.93-0.36-3.91-0.46c0.06,0.48,0.11,0.97,0.17,1.45c23.69,5.67,33.44,17.5,36.81,22.27
				c4.4,6.23,6.76,13.61,11.31,28.13c4.25,13.54,7.13,25.36,9.08,34.52c3.52,0.14,7.04,0.27,10.56,0.41
				C656.9,588.85,640.92,558.96,630.48,554.14z"/>
			<path class="st50" d="M595.47,659.77c-0.55,0-1-0.44-1-0.99l-0.27-46.18c0-0.55,0.44-1,0.99-1.01c0,0,0,0,0.01,0
				c0.55,0,1,0.44,1,0.99l0.27,46.18C596.47,659.32,596.03,659.77,595.47,659.77C595.47,659.77,595.47,659.77,595.47,659.77z"/>
			<path class="st50" d="M644.35,642.5c-0.01,0-0.03,0-0.04,0c-0.55-0.02-0.98-0.49-0.96-1.04c0.48-12.62-0.74-25.18-3.64-37.33
				c-1.55-6.48-3.59-12.92-6.07-19.12c-0.21-0.51,0.04-1.09,0.56-1.3c0.52-0.2,1.09,0.04,1.3,0.56c2.52,6.3,4.59,12.82,6.16,19.4
				c2.94,12.33,4.18,25.07,3.7,37.88C645.33,642.08,644.88,642.5,644.35,642.5z"/>
			<path class="st50" d="M540.55,640.05c-0.11,0-0.22-0.02-0.33-0.06c-0.52-0.18-0.8-0.75-0.62-1.27l9.33-26.75
				c0.18-0.52,0.75-0.8,1.27-0.62c0.52,0.18,0.8,0.75,0.62,1.27l-9.33,26.75C541.35,639.8,540.96,640.05,540.55,640.05z"/>
			<path class="st11" d="M586.86,512.49c-11.58,3.12-23.17,6.24-34.75,9.36c2.54,9.7,5.09,19.41,7.63,29.11
				c6.01,14.45,19.83,19.5,27.34,15.47c5.03-2.69,7.61-9.66,7.5-16.93C592.01,537.17,589.44,524.83,586.86,512.49z"/>
			<path id="XMLID_00000098217224567418389280000000005534257960742037_" class="st11" d="M489.11,697.22
				c23.42,18.67,59.15-3.6,136.49,1.09c18.65,1.13,33.81,3.47,43.51,5.23c8.07,1.52,15.36,3.23,15.83,1.97
				c0.38-1-4.39-4.24-22.74-12.81c42.2,11.31,45.09,9.19,4.54-7.78c43.37,10.08,45.73,7.74,3.85-7.99
				c43.02,10.45,34.83,3.73-4.71-13.58c6.34,0.42,14.86,0.69,15.23-1.09c0.13-0.61-0.52-2.28-13.43-7.03
				c-24.17-8.89-43.52-11.21-43.52-11.21c-35.17-4.22-72.7-1.56-84.25-0.64c0.21-1.44,0.42-2.89,0.63-4.33
				c-22.28-3.39-44.55-6.78-66.83-10.18C468.91,671.84,479.1,689.24,489.11,697.22z"/>
			<path class="st32" d="M589.76,525.74c-8.79-0.19-17.58-0.39-26.37-0.58c-2.01-0.04-4.02-0.09-6.02-0.13
				c-1.24,1.22-2.48,2.44-3.72,3.66c1.29,4.57,2.57,9.13,3.86,13.7c1.79-5.13,3.57-10.27,5.36-15.4c9.73,3.47,19.47,6.95,29.2,10.42
				C591.29,533.52,590.52,529.63,589.76,525.74z"/>
			<path id="XMLID_00000023254067800467824960000011985143254638320554_" class="st11" d="M590.55,476.56L590.55,476.56
				c8.08-0.1,15.13,5.46,16.91,13.34l3.88,17.18c2.6,11.52-6.15,22.48-17.96,22.49c-12.89,0.01-25.79,0.01-38.68,0.02
				c-0.16,0-0.28-0.13-0.27-0.29l1.13-19.29C556.65,491.39,571.92,476.8,590.55,476.56z"/>
			<path class="st32" d="M608.23,493.28l-0.77-3.39c-0.94-4.16-3.35-7.66-6.61-10.03c-3.71-0.28-7.7-0.13-11.1,0.33
				c-12.89,1.74-30.07,9.67-31.18,21.25c-0.55,5.69,2.6,12.64,5.35,12.69c1.94,0.03,3.58-3.36,4.59-5.96
				c0.51,0.16,4.89,1.43,8.87-1.38c4.32-3.04,4.29-8.15,4.28-8.56c0.42,0.3,4.34,3.05,9.17,1.53c5.34-1.68,6.8-7.01,6.88-7.34
				c0.32,0.23,4.72,3.3,9.48,1.38C607.54,493.64,607.89,493.47,608.23,493.28z"/>
			<path id="XMLID_00000114067517446035238950000008081479940131374224_" class="st0" d="M606.09,469.26
				c1.93,2.01,2.23,5.64,0.46,8.71c3.92,2.82,4.82,7.69,3.06,10.39c-2.02,3.1-8.02,4.1-12.23,0.15c-0.44,1.1-1.99,4.56-5.81,6.57
				c-6.06,3.2-12.24-0.2-12.69-0.46c0.31,4.03-1.99,7.71-5.5,9.02c-2.85,1.06-6.13,0.41-8.56-1.63c0.33,0.5,2.05,3.25,1.22,6.67
				c-0.74,3.04-3.22,5.45-6.42,6.27c0.89,3.41,1.78,6.82,2.67,10.23c1.29,4.1-0.53,8.4-3.9,10.1c-3.99,2.02-9.51,0.06-11.46-4.74
				c-0.37,0.04-6.72,0.62-10.24-3.97c-3.22-4.2-2.7-10.93,1.83-15.44c-2.73-3.59-3.05-8.3-0.88-11.75c2.25-3.58,6.25-4.27,6.92-4.38
				c-2.43-3.89-1.76-8.92,1.45-11.85c2.85-2.6,7.19-3.09,10.73-1.16c-0.43-4.38,1.74-8.57,5.47-10.61
				c4.18-2.28,9.55-1.44,12.99,2.14c-0.29-5.37,3.7-10.01,8.87-10.55c4.9-0.51,9.57,2.83,10.7,7.8
				C597.96,466.7,603.51,466.57,606.09,469.26z"/>
			<path class="st51" d="M609.6,488.36c1.76-2.7,0.86-7.57-3.06-10.39c1.77-3.07,1.47-6.7-0.46-8.71
				c-2.57-2.68-8.13-2.56-11.31,1.53c-0.49-2.17-1.67-4.03-3.24-5.4c-4.25-0.31-8.3,1.09-11.01,3.99c-2.45,2.62-3.08,5.69-3.27,7.15
				c-4.52-3.04-10.32-2.9-14.1,0.15c-4.69,3.78-5.6,11.48-1.22,16.97c-2.59-1.34-5.64-0.99-7.49,0.76c-2.39,2.27-2.5,6.63,0.31,9.48
				c-3.99-2.12-8.72-1.24-11.16,1.68c-3.04,3.63-2.26,10.07,2.6,13.3c-2.53,0.72-4.49,2.65-5.04,5.04
				c-0.53,2.26,0.26,4.69,1.98,6.42c2.01,0.39,3.62,0.25,3.8,0.23c1.96,4.8,7.47,6.76,11.46,4.74c3.37-1.7,5.18-6,3.9-10.1
				c-0.89-3.41-1.78-6.82-2.67-10.23c3.2-0.82,5.68-3.23,6.42-6.27c0.83-3.42-0.9-6.16-1.22-6.67c2.43,2.04,5.71,2.69,8.56,1.63
				c3.51-1.31,5.82-4.99,5.5-9.02c0.45,0.26,6.63,3.66,12.69,0.46c3.81-2.01,5.37-5.47,5.81-6.57
				C601.59,492.46,607.59,491.46,609.6,488.36z"/>
			<path id="XMLID_00000165931432922228504640000010149778508871783552_" class="st11" d="M566.79,513.75
				c-4.14-4.95-12.75-8.46-17.44-4.9c-2.25,1.7-2.7,4.35-2.75,4.63c-1,6.41,7.39,13.01,14.36,13.94c2.71,0.36,4.15-0.27,4.82-0.65"
				/>
			<path class="st52" d="M549.35,508.84c-2.25,1.7-2.7,4.35-2.75,4.63c-0.52,3.32,1.49,6.68,4.51,9.29
				c-0.31-0.82-0.55-1.73-0.67-2.76c-0.1-0.88-0.48-4.1,1.26-6.54c2.09-2.93,6.76-4.03,11.76-2.74
				C559.01,507.6,553,506.08,549.35,508.84z"/>
			<path class="st53" d="M593.39,519.59c-0.61,0-1.27-0.07-1.96-0.24c-1.83-0.45-3.11-1.43-3.86-2.17c-0.39-0.39-0.4-1.02-0.01-1.41
				c0.39-0.39,1.02-0.4,1.41-0.01c0.57,0.56,1.54,1.31,2.94,1.65c1.71,0.42,3.16,0.01,3.87-0.28c0.51-0.21,1.09,0.05,1.3,0.56
				c0.2,0.51-0.05,1.09-0.56,1.3C595.88,519.25,594.76,519.59,593.39,519.59z"/>
			<path class="st53" d="M517.7,652.21c-0.36,0-0.71-0.2-0.89-0.54c-0.25-0.49-0.06-1.09,0.43-1.35c4.64-2.38,9.5-4.36,14.46-5.88
				c2.62-0.8,5.32-1.49,8.02-2.04c0.54-0.11,1.07,0.24,1.18,0.78c0.11,0.54-0.24,1.07-0.78,1.18c-2.64,0.54-5.27,1.21-7.83,1.99
				c-4.84,1.48-9.6,3.41-14.13,5.74C518.01,652.17,517.85,652.21,517.7,652.21z"/>
			<path class="st52" d="M623.57,698.2c-16.18-4.84-38.08-8.77-60.11-8.74c-32.44,0.04-47.38,8.66-65.12-2.45
				c-16.56-10.37-21.26-28.97-25.85-37.2c0.11,28.01,8.42,40.87,16.62,47.4C512.33,715.72,547.64,694.01,623.57,698.2z"/>
			<path class="st32" d="M540.16,641.74c0.13-0.9,0.26-1.79,0.39-2.69c-22.28-3.39-44.55-6.78-66.83-10.18
				c-0.5,4.5-0.83,8.7-1.03,12.66L540.16,641.74z"/>
		</g>
	</g>
</g>
</svg>
