<?xml version="1.0" encoding="UTF-8" standalone="no" ?>
<!DOCTYPE svg PUBLIC "-//W3C//DTD SVG 1.1//EN" "http://www.w3.org/Graphics/SVG/1.1/DTD/svg11.dtd">
<svg xmlns="http://www.w3.org/2000/svg" xmlns:xlink="http://www.w3.org/1999/xlink" version="1.1" width="1280" height="1024" viewBox="0 0 1280 1024" xml:space="preserve">
<desc>Created with Fabric.js 4.4.0</desc>
<defs>
</defs>
<g transform="matrix(1 0 0 1 640 512)" id="background-logo"  >
<rect style="stroke: none; stroke-width: 0; stroke-dasharray: none; stroke-linecap: butt; stroke-dashoffset: 0; stroke-linejoin: miter; stroke-miterlimit: 4; fill: rgb(255,255,255); fill-rule: nonzero; opacity: 1;"  paint-order="stroke"  x="-640" y="-512" rx="0" ry="0" width="1280" height="1024" />
</g>
<g transform="matrix(1.9211538461538462 0 0 1.9211538461538462 602.0368611058332 512.664354930648)" id="logo-logo"  >
<g style=""  paint-order="stroke"   >
		<g transform="matrix(1.235916127794155 0 0 -1.235916127794155 -137.42015474169145 -33.00489760185056)"  >
<path style="stroke: none; stroke-width: 1; stroke-dasharray: none; stroke-linecap: butt; stroke-dashoffset: 0; stroke-linejoin: miter; stroke-miterlimit: 4; fill: rgb(0,0,0); fill-rule: nonzero; opacity: 1;"  paint-order="stroke"  transform=" translate(32.811499999999995, 0)" d="M 0 0 C 0 2.485 -2.015 4.5 -4.5 4.5 L -61.123 4.5 C -63.608 4.5 -65.62299999999999 2.485 -65.62299999999999 0 C -65.62299999999999 -2.485 -63.60799999999999 -4.5 -61.12299999999999 -4.5 L -4.5 -4.5 C -2.015 -4.5 0 -2.485 0 0" stroke-linecap="round" />
</g>
		<g transform="matrix(1.235916127794155 0 0 -1.235916127794155 -113.96259022777122 -56.168684852194275)"  >
<path style="stroke: none; stroke-width: 1; stroke-dasharray: none; stroke-linecap: butt; stroke-dashoffset: 0; stroke-linejoin: miter; stroke-miterlimit: 4; fill: rgb(0,0,0); fill-rule: nonzero; opacity: 1;"  paint-order="stroke"  transform=" translate(-28.311499999999995, -4.5)" d="M 0 0 L 56.623 0 C 59.108 0 61.123 2.015 61.123 4.5 C 61.123 6.984999999999999 59.108 9 56.623 9 L 0 9 C -2.485 9 -4.5 6.985 -4.5 4.5 C -4.5 2.015 -2.485 0 0 0" stroke-linecap="round" />
</g>
		<g transform="matrix(1.235916127794155 0 0 -1.235916127794155 -90.50552008030209 -79.33247210253782)"  >
<path style="stroke: none; stroke-width: 1; stroke-dasharray: none; stroke-linecap: butt; stroke-dashoffset: 0; stroke-linejoin: miter; stroke-miterlimit: 4; fill: rgb(0,0,0); fill-rule: nonzero; opacity: 1;"  paint-order="stroke"  transform=" translate(-28.311499999999995, -4.5)" d="M 0 0 L 56.623 0 C 59.108 0 61.123 2.015 61.123 4.5 C 61.123 6.984999999999999 59.108 9 56.623 9 L 0 9 C -2.485 9 -4.5 6.985 -4.5 4.5 C -4.5 2.015 -2.485 0 0 0" stroke-linecap="round" />
</g>
		<g transform="matrix(1.235916127794155 0 0 -1.235916127794155 25.802715366409586 0)"  >
<path style="stroke: none; stroke-width: 1; stroke-dasharray: none; stroke-linecap: butt; stroke-dashoffset: 0; stroke-linejoin: miter; stroke-miterlimit: 4; fill: rgb(0,0,0); fill-rule: nonzero; opacity: 1;"  paint-order="stroke"  transform=" translate(65.48, -77.13749628426787)" d="M 0 0 C -26.822 0 -48.644 21.821 -48.644 48.644 C -48.644 75.465 -26.822 97.286 0 97.286 C 5.2 97.286 10.208 96.45700000000001 14.91 94.93900000000001 L -2.302 50.261 C -3.1950000000000003 47.942 -2.039 45.338 0.2799999999999998 44.444 C 0.8119999999999998 44.239000000000004 1.3579999999999999 44.143 1.896 44.143 C 3.703 44.143 5.4079999999999995 45.238 6.0969999999999995 47.025 L 23.189 91.394 C 38.338 83.143 48.643 67.074 48.643 48.644 C 48.643 21.821 26.821 0 0 0 M -82.316 48.644 C -82.316 21.821 -104.138 0 -130.959 0 C -157.781 0 -179.603 21.821 -179.603 48.644 C -179.603 75.465 -157.781 97.286 -130.959 97.286 C -126.69200000000001 97.286 -122.553 96.729 -118.60600000000001 95.69200000000001 L -136.107 50.26100000000001 C -137.001 47.94200000000001 -135.845 45.33800000000001 -133.526 44.44400000000001 C -132.994 44.23900000000001 -132.447 44.14300000000001 -131.90900000000002 44.14300000000001 C -130.10200000000003 44.14300000000001 -128.39700000000002 45.23800000000001 -127.70900000000002 47.02600000000001 L -110.15200000000002 92.60100000000001 C -93.71200000000002 84.78800000000001 -82.31600000000002 68.02400000000002 -82.31600000000002 48.64400000000001 M 26.44199999999998 99.83800000000002 L 42.31399999999998 141.04100000000003 C 42.686999999999976 141.59700000000004 42.92399999999998 142.22400000000002 43.02299999999998 142.87900000000002 L 44.05599999999998 145.561 C 44.93799999999998 147.854 43.819999999999986 150.431 41.54199999999998 151.351 L 17.56799999999998 161.037 C 6.50699999999998 165.505 -6.306000000000019 163.16500000000002 -15.073000000000018 155.072 C -16.89900000000002 153.386 -17.01300000000002 150.54 -15.327000000000018 148.713 C -13.642000000000017 146.887 -10.794000000000018 146.773 -8.968000000000018 148.459 C -2.7470000000000176 154.203 6.345999999999982 155.862 14.196999999999981 152.692 L 32.54099999999998 145.281 C 9.765 132.603 -15.948 125.898 -42.044 125.898 L -97.32499999999999 125.898 L -90.25099999999999 144.261 L -75.44399999999999 144.261 C -72.95899999999999 144.261 -70.94399999999999 146.275 -70.94399999999999 148.761 C -70.94399999999999 151.246 -72.95899999999999 153.261 -75.44399999999999 153.261 L -112.45499999999998 153.261 C -114.93999999999998 153.261 -116.95499999999998 151.246 -116.95499999999998 148.761 C -116.95499999999998 146.275 -114.93999999999998 144.261 -112.45499999999998 144.261 L -99.89599999999999 144.261 L -115.35799999999999 104.12299999999999 C -120.32399999999998 105.52199999999999 -125.55199999999999 106.28599999999999 -130.959 106.28599999999999 C -162.744 106.28599999999999 -188.603 80.42799999999998 -188.603 48.643999999999984 C -188.603 16.857999999999983 -162.744 -9.000000000000014 -130.959 -9.000000000000014 C -99.17500000000001 -9.000000000000014 -73.316 16.857999999999986 -73.316 48.643999999999984 C -73.316 71.84699999999998 -87.105 91.87799999999999 -106.912 101.01099999999998 L -100.792 116.89799999999998 L -42.044000000000004 116.89799999999998 C -17.091000000000005 116.89799999999998 7.536999999999999 122.68099999999998 29.836999999999996 133.68699999999998 L 18.147 103.343 C 12.437 105.242 6.34 106.286 0 106.286 C -31.785 106.286 -57.644 80.428 -57.644 48.644 C -57.644 16.858 -31.785 -9 0 -9 C 31.784 -9 57.643 16.858 57.643 48.644 C 57.643 70.9 44.956 90.23599999999999 26.442 99.838" stroke-linecap="round" />
</g>
		<g transform="matrix(1.235916127794155 0 0 -1.235916127794155 106.73000904791985 55.35037559931516)"  >
<path style="stroke: none; stroke-width: 1; stroke-dasharray: none; stroke-linecap: butt; stroke-dashoffset: 0; stroke-linejoin: miter; stroke-miterlimit: 4; fill: rgb(0,0,0); fill-rule: nonzero; opacity: 1;"  paint-order="stroke"  transform=" translate(32.581500000000005, 20.791)" d="M 0 0 C -2.485 0 -4.5 -2.015 -4.5 -4.5 C -4.5 -19.984 -17.097 -32.582 -32.581 -32.582 C -48.065000000000005 -32.582 -60.663000000000004 -19.984 -60.663000000000004 -4.5 C -60.663000000000004 -2.015 -62.678000000000004 0 -65.16300000000001 0 C -67.64800000000001 0 -69.66300000000001 -2.015 -69.66300000000001 -4.5 C -69.66300000000001 -24.947 -53.028000000000006 -41.582 -32.58100000000001 -41.582 C -12.135 -41.582 4.5 -24.947 4.5 -4.5 C 4.5 -2.015 2.485 0 0 0" stroke-linecap="round" />
</g>
		<g transform="matrix(1.235916127794155 0 0 -1.235916127794155 -55.1244547234877 55.35037559931516)"  >
<path style="stroke: none; stroke-width: 1; stroke-dasharray: none; stroke-linecap: butt; stroke-dashoffset: 0; stroke-linejoin: miter; stroke-miterlimit: 4; fill: rgb(0,0,0); fill-rule: nonzero; opacity: 1;"  paint-order="stroke"  transform=" translate(-28.081500000000005, 16.291)" d="M 0 0 C 0 2.485 -2.015 4.5 -4.5 4.5 C -6.985 4.5 -9 2.485 -9 0 C -9 -20.447 7.635000000000002 -37.082 28.082 -37.082 C 48.528000000000006 -37.082 65.16300000000001 -20.447 65.16300000000001 0 C 65.16300000000001 2.485 63.14800000000001 4.5 60.66300000000001 4.5 C 58.17800000000001 4.5 56.16300000000001 2.485 56.16300000000001 0 C 56.16300000000001 -15.484 43.56600000000001 -28.082 28.08200000000001 -28.082 C 12.597 -28.082 0 -15.484 0 0" stroke-linecap="round" />
</g>
</g>
</g>
</svg>